<svg xmlns="http://www.w3.org/2000/svg" viewBox="0 0 92.32 125.01"><defs><style>.cls-1{fill:#b2b2b2;}</style></defs><title>city-london</title><g id="Layer_2" data-name="Layer 2"><g id="project"><path class="cls-1" d="M76.48,33.77c.25,0,.29-.19.38-.32a14.65,14.65,0,0,0,1.64-3,21.1,21.1,0,0,0,1.44-6,31.41,31.41,0,0,0-.4-8.76.74.74,0,0,1,0-.21s0-.07.06-.07a.09.09,0,0,1,.09,0,2.9,2.9,0,0,1,.16.41,36.37,36.37,0,0,0,2,5,10.15,10.15,0,0,0,1.73,2.66.32.32,0,0,1,.06.44c-.22.42-.43.84-.64,1.27-.63,1.26-1.26,2.53-1.88,3.79a1.5,1.5,0,0,0-.06.29c.06-.06.14-.11.2-.18A56.11,56.11,0,0,0,86,23a71.66,71.66,0,0,0,3.66-6.21,1.76,1.76,0,0,1,.21-.38,1.42,1.42,0,0,1,.28-.2,1.12,1.12,0,0,1,0,.36c-.07.23-.17.44-.26.66a50.31,50.31,0,0,1-5.42,9.55A71.5,71.5,0,0,1,79.53,33c-.41.46-.81.95-1.18,1.45a3.24,3.24,0,0,0-.44.87.77.77,0,0,0,.36,1,4.37,4.37,0,0,0,.71.28,1.17,1.17,0,0,1,.79,1.69,3.89,3.89,0,0,1-.59.92A11.43,11.43,0,0,1,76,41.58a1.59,1.59,0,0,1-.79.14.5.5,0,0,1-.49-.37.54.54,0,0,1,.15-.6,4.93,4.93,0,0,1,.51-.42c.36-.26.73-.5,1.09-.75s.62-.45.91-.7c.6-.52.56-.75-.17-1.09l-.15-.07a3.24,3.24,0,0,1-1.64-1.32c-.08-.14-.16-.22-.26,0a11.12,11.12,0,0,0-1.49,3.7,7.21,7.21,0,0,0,0,1.54,2.88,2.88,0,0,0,1,1.87c.3.27.59.54.87.84a1.73,1.73,0,0,0,1.76.48c.43-.1.85-.25,1.28-.34.61-.13,1.22-.24,1.83-.31a2.45,2.45,0,0,1,.75.12c.06,0,.1.1.14.16a.48.48,0,0,1-.16.08,9,9,0,0,0-2.9,1.14c-.33.17-.32.19,0,.44l.67.58a8,8,0,0,1,2.52,4.23c.17.71.34,1.43.58,2.12a6.26,6.26,0,0,0,.77,1.5,2,2,0,0,0,2.29.8,1.06,1.06,0,0,0,.85-1.27,4.41,4.41,0,0,0-.57-1.47c-.36-.7-.7-1.41-1-2.14A4.09,4.09,0,0,1,84,48.6,2.32,2.32,0,0,1,87,46.49a2.21,2.21,0,0,1,1.53,1.9,2.08,2.08,0,0,1-1.07,2c-.37.2-.43.19-.69-.13a2.77,2.77,0,0,1-.31-.45c-.17-.33-.15-.34.18-.52a.81.81,0,0,0,.47-1,.78.78,0,0,0-.77-.59.76.76,0,0,0-.79.62A2,2,0,0,0,85.7,50a7.83,7.83,0,0,0,.86,1.13A5.38,5.38,0,0,1,88,53.68a3.26,3.26,0,0,1-3,4,6,6,0,0,1-4.55-1.57.92.92,0,0,1-.3-.68A16.65,16.65,0,0,0,79.27,51a9,9,0,0,0-1.44-2.7,4.61,4.61,0,0,0-.37-.4.1.1,0,0,0-.1,0,.25.25,0,0,0-.06.13,3.64,3.64,0,0,0,.14.47c.22.57.43,1.13.68,1.69a15.82,15.82,0,0,1,1.14,4.17c.19,1.27.39,2.53.58,3.8a1.49,1.49,0,0,0,.72,1.12,6.36,6.36,0,0,0,.58.3l.65.29c.85.4.93.62.57,1.5a16.52,16.52,0,0,0-1.26,5,.62.62,0,0,0,.29.64,6.21,6.21,0,0,1,.79.75c.08.09,0,.19-.09.18a5.52,5.52,0,0,1-.71-.1A13.39,13.39,0,0,1,78.84,67a7.11,7.11,0,0,0-1-.34,1.43,1.43,0,0,0-.65,0,.78.78,0,0,1-.58,0c-.17-.08-.27,0-.37.13s-.26.12-.27-.06a3.39,3.39,0,0,1,.07-.64c0-.21,0-.32-.17-.25s-.5.22-.75,0c0,0-.14,0-.19.07a1.18,1.18,0,0,0-.11.19l-.15.15a1.34,1.34,0,0,1-.13-.23,1.06,1.06,0,0,1,.76-1.23,2.7,2.7,0,0,1,2,.21c.46.21.95.38,1.42.58.22.1.33,0,.42-.18.43-1.07.88-2.14,1.31-3.21.13-.3.11-.3-.21-.5-.8-.51-1.62-1-2.4-1.55a15.93,15.93,0,0,1-3.42-3.24,7,7,0,0,1-1.35-3,3.35,3.35,0,0,1,.44-2.33A7.42,7.42,0,0,0,74.2,50a2.29,2.29,0,0,0-.69-2.59,18.12,18.12,0,0,1-2.91-3.57,1,1,0,0,1-.09-1.17,2.48,2.48,0,0,0,.24-.55s0-.1,0-.15l-.15,0a7.81,7.81,0,0,0-.82.55,1,1,0,0,1-1.07.16,4,4,0,0,0-1.84-.23c-.72.06-.75.1-.39.7a15.44,15.44,0,0,0,3.94,4.61,11.76,11.76,0,0,0,2.2,1.34l.3.14.06.08c0,.05-.06.1-.1.11l-.33,0-4.88.35a1.58,1.58,0,0,0-.48.1.62.62,0,0,0-.4.8,3.09,3.09,0,0,0,.43.94,17.3,17.3,0,0,0,1.31,1.63c1,1,2,2,2.93,3.05a3.34,3.34,0,0,1,.58.86.66.66,0,0,1-.28.9,4.08,4.08,0,0,1-.58.32,10.79,10.79,0,0,0-3,2.32c-.17.17-.09.25,0,.39a7.64,7.64,0,0,1,.61.77c0,.07,0,.2,0,.3a1.53,1.53,0,0,1-.25-.06c-1.09-.48-2.17-1-3.27-1.44a5.33,5.33,0,0,0-1.06-.28,1.06,1.06,0,0,0-.53,0,.92.92,0,0,1-.69.07c-.07,0-.21.08-.3.15a1.46,1.46,0,0,0-.19.16,1.25,1.25,0,0,1-.09-.25.81.81,0,0,1,.19-.67.66.66,0,0,0,0-.15.8.8,0,0,0-.21,0,.24.24,0,0,0-.15,0c-.23.21-.46.35-.78.16-.05,0-.22.14-.33.22l-.16.13c0-.06-.09-.11-.1-.17a1.09,1.09,0,0,1,.58-1.2,2.3,2.3,0,0,1,2.12-.12c.55.23,1.12.44,1.69.65a1,1,0,0,0,.48.07,6.87,6.87,0,0,0,2.24-.7,2.42,2.42,0,0,0,.41-.27A1.57,1.57,0,0,0,69,56.53a4.85,4.85,0,0,0-1-1.36c-.57-.57-1.13-1.15-1.66-1.76a5.94,5.94,0,0,1-1.14-1.86A2.54,2.54,0,0,1,65.05,50a1.58,1.58,0,0,1,1.2-1.3c.57-.13,1.15-.2,1.73-.28.14,0,.29,0,.44,0a1.31,1.31,0,0,0,.28-.09,1.59,1.59,0,0,0-.15-.21,21.34,21.34,0,0,1-2.85-3.77q-.32-.51-.6-1.05c-.1-.19-.21-.27-.42-.16-.79.38-1.59.75-2.38,1.14a1.52,1.52,0,0,0-.32.26l.34.16A4.38,4.38,0,0,1,63,45a2.43,2.43,0,0,1,.54.52c.09.11.23.36-.14.22h-.05c-.35.37-.74.14-1.12.1a1,1,0,0,0-1.11.78,2.69,2.69,0,0,0,0,1.41.84.84,0,0,0,.74.7l.33.06c.21,0,.39.09.46.32a.32.32,0,0,0,.13.15c.25.16.27.23,0,.31a3.59,3.59,0,0,1-.74.14l-.24.07c0,.1.07.2.11.29s0,0,0,0c.46,0,.71.36,1,.59h0a.87.87,0,0,1-.93.42,4.58,4.58,0,0,1-.81-.14c-.28-.07-.32,0-.37.21s0,.52-.14.61-.45.08-.68.08H49.23c-.78,0-.78,0-.78.8V66.72c0,.17,0,.33,0,.5a.47.47,0,0,1-.32.51c-.55.25-1.09.52-1.64.75a.83.83,0,0,1-.58,0c-.64-.27-1.26-.58-1.89-.88a.41.41,0,0,1-.26-.44c0-.14,0-.29,0-.44V52.68c0-.87.07-.84-.84-.84H32c-.49,0-.49,0-.54-.51a.77.77,0,0,0,0-.27.35.35,0,0,0-.24-.14,1,1,0,0,0-.37.09,1.59,1.59,0,0,1-1.55-.3h0c.13-.14.36-.14.44-.38s.28-.13.43-.19a1.68,1.68,0,0,0,.33-.16.35.35,0,0,0,.05-.25s-.13-.06-.19-.06a1.08,1.08,0,0,1-.92-.24c-.06-.06-.14-.15,0-.19s.24-.07.26-.14c.09-.29.32-.32.56-.36.83-.16,1-.41,1-1.26a3.25,3.25,0,0,0-.11-.93,1,1,0,0,0-1.28-.73c-.3.07-.6.23-.85-.1,0,0-.14,0-.21,0s-.18-.07-.12-.15a3.52,3.52,0,0,1,.6-.62,3.17,3.17,0,0,1,.7-.31l.33-.17c-.1-.08-.2-.18-.31-.26a2.79,2.79,0,0,0-.34-.18l-2-.9c-.35-.16-.35-.15-.54.17-.33.55-.64,1.11-1,1.65a20.28,20.28,0,0,1-2.32,3l-.11.12-.14.22a1,1,0,0,0,.23.08c.39,0,.78,0,1.16.09a5.93,5.93,0,0,1,1,.2,1.74,1.74,0,0,1,1.28,1.72,3.37,3.37,0,0,1-.39,1.53,8.09,8.09,0,0,1-1.34,1.94c-.4.43-.83.83-1.23,1.26a8.34,8.34,0,0,0-1,1.19A1.63,1.63,0,0,0,24,58.76a6,6,0,0,0,1.78.7,2.24,2.24,0,0,0,1.65-.1c.4-.18.81-.33,1.22-.5a2.33,2.33,0,0,1,2.12.14,1.12,1.12,0,0,1,.54,1.26.57.57,0,0,1-.08.13s-.1,0-.13-.1c-.14-.26-.3-.4-.61-.21-.07,0-.21,0-.3,0s-.17-.16-.27-.19a.82.82,0,0,0-.31,0l.09.23a4,4,0,0,1,.14.57c0,.09-.08.2-.13.29-.05-.07-.12-.13-.17-.21a.28.28,0,0,0-.33-.12.61.61,0,0,1-.42,0,1.73,1.73,0,0,0-1.34,0,3.42,3.42,0,0,0-.61.22l-3.17,1.41a1.17,1.17,0,0,1-.2,0,.72.72,0,0,1,0-.25,1.71,1.71,0,0,1,.57-.78c.28-.25.28-.26,0-.5A9.87,9.87,0,0,0,21,58.41c-1-.42-.87-1-.37-1.7a5.62,5.62,0,0,1,.41-.44c1.14-1.2,2.28-2.39,3.41-3.59a8.92,8.92,0,0,0,.7-.92,3.23,3.23,0,0,0,.31-.58c.34-.78.06-1.22-.81-1.29l-4.83-.34a.71.71,0,0,1-.21,0,1,1,0,0,1-.24-.11,1.4,1.4,0,0,1,.2-.16,14.19,14.19,0,0,0,6.39-6.15l0,0c.22-.4.21-.43-.26-.5a4.29,4.29,0,0,0-1.85.12c-.12,0-.25.07-.36.12a.74.74,0,0,1-.78-.1c-.33-.23-.67-.45-1-.67a.29.29,0,0,0-.1,0s0,.11,0,.14c.11.27.22.55.35.81a.63.63,0,0,1,0,.67A16.1,16.1,0,0,1,19,47.23a2.64,2.64,0,0,0-.63,3.56,6.37,6.37,0,0,0,.41.72A3.25,3.25,0,0,1,19.24,54a7,7,0,0,1-1.52,3.14,16.82,16.82,0,0,1-3.43,3.15c-.71.49-1.45.93-2.18,1.39-.34.21-.35.21-.19.59q.62,1.52,1.23,3c.16.4.18.42.6.27s.88-.36,1.32-.55A2.67,2.67,0,0,1,17,64.76a1.07,1.07,0,0,1,.75,1.33s-.06.11-.1.12-.09,0-.11-.08-.08-.17-.15-.23-.19-.09-.23-.06a.53.53,0,0,1-.65,0c-.2-.1-.27,0-.23.23a4.05,4.05,0,0,1,0,.7c0,.12-.13.18-.22,0a.32.32,0,0,0-.46-.14.67.67,0,0,1-.42,0,1.27,1.27,0,0,0-.86,0l-.88.32c-.83.29-1.65.58-2.49.85a3.39,3.39,0,0,1-.65.11.82.82,0,0,1-.21,0c0-.08,0-.18.09-.23a5.74,5.74,0,0,1,.73-.67.58.58,0,0,0,.3-.63,17.64,17.64,0,0,0-1.34-5.2c-.28-.65-.19-.92.44-1.24.37-.2.77-.35,1.15-.53a1.71,1.71,0,0,0,1-1.44c.2-1.53.48-3,.72-4.56a12.64,12.64,0,0,1,.86-3c.26-.64.52-1.29.77-1.94A5.16,5.16,0,0,0,15,48s0-.1,0-.1-.11,0-.14,0a4.61,4.61,0,0,0-.37.4,10.54,10.54,0,0,0-1.77,3.81,17.38,17.38,0,0,0-.52,3.37.85.85,0,0,1-.31.61A5.94,5.94,0,0,1,7.5,57.71a3.25,3.25,0,0,1-3.22-3,3.59,3.59,0,0,1,.25-1.62,6.37,6.37,0,0,1,1.28-2,6.38,6.38,0,0,0,.87-1.19,1.91,1.91,0,0,0,.09-1.65.75.75,0,0,0-.82-.5.8.8,0,0,0-.21,1.55c.31.16.33.19.17.48-.49.88-.65,1-1.46.27a2.11,2.11,0,0,1-.38-2.49,2.14,2.14,0,0,1,2.29-1.14,2.27,2.27,0,0,1,2,2.36A4.2,4.2,0,0,1,8,50.52c-.29.71-.63,1.4-1,2.08A4.61,4.61,0,0,0,6.49,54a1,1,0,0,0,.86,1.35,2.08,2.08,0,0,0,2.26-.77,4.28,4.28,0,0,0,.77-1.5,18.63,18.63,0,0,0,.52-1.91,8.44,8.44,0,0,1,3-4.82c.6-.49.59-.51-.08-.85a8.18,8.18,0,0,0-2.62-1s-.09,0-.13-.07,0-.12.08-.13a2.91,2.91,0,0,1,.63-.16,5.92,5.92,0,0,1,2,.3c.42.12.84.25,1.27.34a1.76,1.76,0,0,0,1.81-.5c.29-.31.6-.59.91-.88a2.91,2.91,0,0,0,.9-1.89,5.67,5.67,0,0,0-.43-2.91c-.33-.73-.7-1.45-1.06-2.17-.12-.25-.15-.25-.31,0a3.52,3.52,0,0,1-1.61,1.29c-1,.4-1,.63-.19,1.28.47.38,1,.71,1.48,1.06.29.22.59.44.87.67a.54.54,0,0,1,.18.6.59.59,0,0,1-.53.41,1.28,1.28,0,0,1-.85-.19,12.76,12.76,0,0,1-2.81-2.09,4.35,4.35,0,0,1-.75-1,1.19,1.19,0,0,1,.79-1.87c1.11-.35,1.34-.91.7-1.89a16.8,16.8,0,0,0-1.28-1.64c-1.25-1.52-2.55-3-3.74-4.55A51.93,51.93,0,0,1,2.86,18.24c-.21-.47-.4-.94-.6-1.42a1.69,1.69,0,0,1-.12-.36c0-.07.06-.15.09-.23s.15,0,.18.09a4.39,4.39,0,0,1,.27.47,59.8,59.8,0,0,0,6.15,9.63c.7.87,1.44,1.71,2.16,2.56a1.58,1.58,0,0,0,.29.22l0,.12,0,0-.08-.08a4.36,4.36,0,0,0-.17-.51c-.75-1.52-1.52-3-2.28-4.57-.23-.47-.23-.38.1-.74a8.91,8.91,0,0,0,1.37-2.06,35.92,35.92,0,0,0,2.17-5.39c.06-.2,0-.45.29-.54a5.3,5.3,0,0,1,0,.57,31.4,31.4,0,0,0-.22,9.48,18.72,18.72,0,0,0,2.2,6.81c.32.55.68,1.08,1,1.62h0c.14-.2,0-.35-.09-.51-.28-.69-.6-1.38-.86-2.08A7.56,7.56,0,0,1,14.45,30a2.29,2.29,0,0,1,.67-2,1.73,1.73,0,0,1,.24-.23c.24-.17.2-.36.08-.57a.59.59,0,0,0-.13-.18.49.49,0,0,1-.11-.7.84.84,0,0,0-.17-.93c-.13-.16-.11-.27,0-.42a.91.91,0,0,0,.21-1,.38.38,0,0,1,0-.27c.22-.52.45-1,.68-1.55a1.1,1.1,0,0,1,.22-.31c.1-.12.23-.23.34-.34,0,.14.07.29.09.44a3.66,3.66,0,0,0,.73,1.46s.13,0,.13,0,0-.16,0-.22.19-.29.28-.44a2.86,2.86,0,0,0,.1.42,4.35,4.35,0,0,0,.36.79,2.47,2.47,0,0,1,.51,1.7c0,.18.1.15.21.12.34-.09.67-.2,1-.26.56-.11,1.12-.19,1.68-.26a1.62,1.62,0,0,1,.54,0c.18,0,.33.16.29.35a.53.53,0,0,1-.27.3,4.27,4.27,0,0,1-.64.15l-1.7.45a.89.89,0,0,0-.28.21,1.44,1.44,0,0,0,.25.18q.5.24,1,.45a1,1,0,0,0,.37.08c.3,0,.48-.13.45-.43s.15-.5.44-.58a10.18,10.18,0,0,1,1.33-.29,10.94,10.94,0,0,1,3.13,0,5.2,5.2,0,0,1,.67.21.58.58,0,0,1,.17.14h-.18c-.24,0-.47-.07-.71-.08s-.32.06-.33.28a.07.07,0,0,1,0,.05,1.58,1.58,0,0,1-1.55,1.55l-3.8.62a2.57,2.57,0,0,0-.48.11.78.78,0,0,0-.34.25c-.21.27-.05.61.28.57a6.6,6.6,0,0,0,2.52-.44A2.92,2.92,0,0,1,25,29.2,1.77,1.77,0,0,0,26.46,29c.15-.08.16-.18,0-.29l-.11-.12-.19-.32c.13,0,.25,0,.37,0A1.28,1.28,0,0,0,27.84,28a.52.52,0,0,1,.13-.06.83.83,0,0,1,0,.15,1.58,1.58,0,0,1-.5,1.13,3.07,3.07,0,0,1-.62.45c-.49.28-.5.27-.6-.27l0,0v0a1.84,1.84,0,0,1-1.32.22c-.32-.06-.37,0-.28.3a7.82,7.82,0,0,0,.36.91,2.44,2.44,0,0,0,.1.24.83.83,0,0,1-.27,0c-.3,0-.61-.11-.91-.18s-.25,0-.21.21,0,.21.07.32.1.27.15.4a1.93,1.93,0,0,1-.47.05A11.56,11.56,0,0,1,22,31.59,14.43,14.43,0,0,0,18.39,31a.46.46,0,0,1-.43-.27,2.44,2.44,0,0,0-.84-1c-.19-.12-.19-.22-.08-.4a2.55,2.55,0,0,0,.33-1.53c0-.05-.05-.09-.07-.14a.52.52,0,0,0-.11.1l-.08.15a2.66,2.66,0,0,1-1.57,1.44.6.6,0,0,0-.13.09c0,.05.07.12.12.14a3.61,3.61,0,0,1,1.65,2.05c.07.21.17.24.36.22a5.63,5.63,0,0,1,.71,0,.5.5,0,0,1,.2.08.64.64,0,0,1-.13.15,1.07,1.07,0,0,0-.56.78,1.2,1.2,0,0,0,.3,1.07,4.65,4.65,0,0,0,.59.49q6.34,4.55,12.7,9.09a2.35,2.35,0,0,1,1,1.35c.16.65.32,1.31.47,2,.08.37.07.38.45.39h9.9c.61,0,.62,0,.62-.61,0-1.16,0-2.31,0-3.47,0-2.58,0-5.17,0-7.75a.89.89,0,0,0-.43-.92,1.24,1.24,0,0,1-.6-1.06c0-.27-.13-.33-.38-.33H37.52c-.36,0-.35,0-.38.36A3.83,3.83,0,0,1,37,34c-.08.3-.07.22-.38.14s-.5-.42-.54-.78a.49.49,0,0,0-.15-.27.22.22,0,0,0-.21,0,.19.19,0,0,0-.07.17,1.56,1.56,0,0,1-.17,1.06c-.05.07-.13.19-.19,0a.45.45,0,0,0-.35-.29c-.11,0-.21-.2-.25-.33a.92.92,0,0,0-1-.67,8.7,8.7,0,0,0-1.36.13,2.5,2.5,0,0,0-.85.38.62.62,0,0,0-.26.89c.1.27.3.52.06.82,0,0,0,.13.06.19s0,.18-.13.15a1.66,1.66,0,0,1-1.09-.78c-.31-.52-.36-.38-.65,0-.6.67-1.17,1.36-1.75,2a.7.7,0,0,0-.06,1,2.8,2.8,0,0,1,.41,2c0,.22-.09.26-.28.16a2.75,2.75,0,0,1-.52-.31.6.6,0,0,1-.22-.34,6.73,6.73,0,0,0-1.5-3,12.9,12.9,0,0,0-3.66-3.12l-.57-.34s0-.07-.06-.1a.22.22,0,0,1,.11,0A4.66,4.66,0,0,1,22,33c1.23.73,2.47,1.43,3.66,2.21a1,1,0,0,0,1.3,0,13.23,13.23,0,0,0,2.14-1.81c.35-.35.68-.71,1-1.07a1.7,1.7,0,0,1,.83-.52,13.1,13.1,0,0,1,3.52-.53,5.36,5.36,0,0,1,1,.12,2.18,2.18,0,0,1,1.34.8.72.72,0,0,0,.65.31h4.89c.4,0,.4,0,.53-.38a6.45,6.45,0,0,1,1.08-1.84,1.5,1.5,0,0,1,1-.55,16.55,16.55,0,0,0,2-.5,5.62,5.62,0,0,0,2.74-1.65c.11-.13.18-.07.23.05l0,.05.53,1.08a10.45,10.45,0,0,0-1,.57c-.53.4-1,.83-1.53,1.25l-.37.33,0,0v0a3.33,3.33,0,0,0,.56-.18,15.58,15.58,0,0,1,2.73-1.14,2.2,2.2,0,0,1,1.92.38A1.49,1.49,0,0,1,53,32.28a1.14,1.14,0,0,0-.12.22l.21,0H55a.47.47,0,0,0,.43-.19,2.81,2.81,0,0,1,2.37-1,14.5,14.5,0,0,1,2.94.36,3.07,3.07,0,0,1,1.78,1,24.19,24.19,0,0,0,1.84,1.81,11.46,11.46,0,0,0,1.2.87.8.8,0,0,0,1,0c1-.65,2-1.26,3-1.87.39-.23.81-.42,1.22-.62a1.47,1.47,0,0,1,.3-.08.93.93,0,0,1-.21.19c-.26.17-.54.32-.8.48a13.11,13.11,0,0,0-3.22,2.81,8.81,8.81,0,0,0-1.23,2,2.11,2.11,0,0,0-.24.72c0,.59-.37.79-.79,1-.25.13-.3.09-.33-.21a2.77,2.77,0,0,1,.4-1.89.73.73,0,0,0,0-1c-.62-.72-1.23-1.45-1.86-2.17-.22-.24-.25-.24-.44.05a1.92,1.92,0,0,1-1.24.93c-.14,0-.16,0-.1-.14s.11-.16.1-.18c-.29-.34,0-.62.07-.91a.61.61,0,0,0-.25-.82,2.18,2.18,0,0,0-.78-.38,11.9,11.9,0,0,0-1.58-.15.84.84,0,0,0-.85.57c-.09.23-.14.47-.46.48a.14.14,0,0,0-.09,0c-.28.24-.3.24-.39-.09a3.74,3.74,0,0,1-.06-.75c0-.1.07-.25-.1-.25a.49.49,0,0,0-.3.17c-.06.07-.05.2-.07.31,0,.27-.11.5-.44.55-.07,0-.14.1-.19.17s-.15.06-.17,0a3.7,3.7,0,0,1-.18-.8c0-.35,0-.38-.42-.38H52.62c-1.06,0-2.13,0-3.19,0a1.32,1.32,0,0,0-.62.15,1.54,1.54,0,0,1-1.71,0c-.12-.09-.2-.06-.26.06l-.3.52-.3.45a2.09,2.09,0,0,0,.53-.3.44.44,0,0,1,.66-.1,2.2,2.2,0,0,0,.73.21.29.29,0,0,1,.28.33c0,.16,0,.33,0,.49V46.32c0,1,0,.85.83.85H59c.48,0,.46,0,.55-.48.15-.7.32-1.39.52-2.08a2.05,2.05,0,0,1,.84-1.11q6.36-4.53,12.7-9.09a5.12,5.12,0,0,0,.52-.4A1.21,1.21,0,0,0,74,32a1.06,1.06,0,0,1-.15-.15c.06,0,.13-.09.19-.09a5.63,5.63,0,0,1,.71,0c.18,0,.3,0,.37-.2a3.52,3.52,0,0,1,1.7-2.08c.11-.07.12-.16,0-.19a2.77,2.77,0,0,1-1.67-1.56.5.5,0,0,0-.15-.14.6.6,0,0,0-.06.19,2.47,2.47,0,0,0,.33,1.48c.09.14.13.23-.05.35a2.4,2.4,0,0,0-.85,1,.53.53,0,0,1-.53.3,13.53,13.53,0,0,0-3.4.58,6.4,6.4,0,0,1-1.89.32c-.27,0-.28,0-.18-.28a1.4,1.4,0,0,0,.13-.36,2.1,2.1,0,0,0,0-.36l-.36.06-.76.12a1.22,1.22,0,0,1-.26,0l.09-.24c.13-.34.27-.68.39-1,.06-.17,0-.26-.19-.21A3.22,3.22,0,0,1,66,29.44h0c0,.09,0,.18,0,.27s0,.16-.16.13a2.1,2.1,0,0,1-1.52-1.71,1.92,1.92,0,0,1,0-.22,1,1,0,0,1,.18.09,1.29,1.29,0,0,0,1.33.25,2.45,2.45,0,0,1,.27,0,1.18,1.18,0,0,1-.12.28c-.31.41-.31.41.15.61a1.57,1.57,0,0,0,1.13.09,3.05,3.05,0,0,1,2.35.19,3,3,0,0,0,1.2.32l1.15.1c.2,0,.38,0,.46-.2a.44.44,0,0,0-.24-.55,2.36,2.36,0,0,0-.63-.17c-1.3-.23-2.6-.44-3.9-.66a2.59,2.59,0,0,1-.48-.12,1.26,1.26,0,0,1-.89-1l0-.16c-.14-.65-.22-.7-.89-.57a2.14,2.14,0,0,1-.27.06s-.07,0-.11,0,0-.07.06-.08a3.12,3.12,0,0,1,.62-.23A10.34,10.34,0,0,1,70,26.3l.41.14a.35.35,0,0,1,.27.41c0,.45.27.65.68.5s.87-.37,1.3-.57c.14-.07.11-.19,0-.25a8.21,8.21,0,0,0-.84-.27c-.44-.12-.89-.21-1.33-.31a1.06,1.06,0,0,1-.37-.1c-.11-.07-.24-.21-.24-.31a.46.46,0,0,1,.25-.31,1.6,1.6,0,0,1,.65-.05,12.17,12.17,0,0,1,2.53.49c.28.1.31.08.28-.24A2.22,2.22,0,0,1,74,24a2.14,2.14,0,0,0,.49-1.26s0-.08.07-.12.11.06.13.1.1.31.15.46.05.12.07.17a.5.5,0,0,0,.15-.14,2.66,2.66,0,0,0,.67-1.7.12.12,0,0,1,.08-.11.2.2,0,0,1,.13.08,3.68,3.68,0,0,1,.77,1.25c.1.28.23.54.32.81a.47.47,0,0,1,0,.31.92.92,0,0,0,.19,1c.17.17.14.29,0,.47a.89.89,0,0,0-.06,1.08.23.23,0,0,1,0,.33A1.64,1.64,0,0,0,77,27c-.25.37-.25.43.08.75a2.41,2.41,0,0,1,.85,1.55,3.71,3.71,0,0,1-.09,1.15,13.05,13.05,0,0,1-1.33,3.29v0ZM51.09,32.53h.82a1,1,0,0,0,1-.91.69.69,0,0,0-.79-.85,1.6,1.6,0,0,0-.76.28c-.52.4-1,.84-1.5,1.27,0,0-.06.11,0,.14s.08.06.13.06Z"/><path class="cls-1" d="M40.24,110.85c0-.53,0-1.06,0-1.59a10.8,10.8,0,0,0-.38-3.1c-.11-.37-.09-.38.26-.39h2.42c.31,0,.34,0,.26.31a11.77,11.77,0,0,0-.4,3.64c0,1.69,0,3.38,0,5.06a16,16,0,0,0,.12,1.7,4.9,4.9,0,0,0,.26,1c.12.35.13.37-.26.37-.77,0-1.54,0-2.31,0a.34.34,0,0,1-.38-.21,9.44,9.44,0,0,0-.86-1.52c-1.26-1.71-2.56-3.39-3.85-5.08a.77.77,0,0,0-.15-.16s-.12,0-.12,0a1.27,1.27,0,0,0,0,.28l0,3.51a9.6,9.6,0,0,0,.39,2.82c.08.29.06.33-.24.33-.84,0-1.68,0-2.52,0-.19,0-.28-.07-.22-.27a12.5,12.5,0,0,0,.42-4.13c0-1.45,0-2.9,0-4.35a6.19,6.19,0,0,0-.59-2.93c-.18-.38-.16-.39.23-.4.61,0,1.21,0,1.82,0a.44.44,0,0,1,.44.25c1.1,2,2.58,3.73,3.86,5.61.49.73,1,1.44,1.53,2.15a2,2,0,0,0,.26.24,2.23,2.23,0,0,0,0-.36C40.24,112.72,40.24,111.79,40.24,110.85Z"/><path class="cls-1" d="M82.37,110.81c0-.84,0-1.68,0-2.52a8.32,8.32,0,0,0-.37-2.22c-.07-.22,0-.3.21-.3.84,0,1.69,0,2.53,0,.22,0,.3.09.23.3a13.77,13.77,0,0,0-.42,4.19c0,1.55,0,3.09,0,4.63,0,.63.1,1.27.18,1.91a3.4,3.4,0,0,0,.26.78c.07.19,0,.27-.17.27H83.18a3.19,3.19,0,0,1-1,0c-.34-.1-.27-.55-.47-.81-.3-.41-.55-.86-.86-1.27-1.16-1.54-2.33-3.06-3.5-4.59a2.65,2.65,0,0,0-.21-.26.17.17,0,0,0-.16,0,.72.72,0,0,0,0,.21l0,3.58a10,10,0,0,0,.39,2.77c.09.31.07.35-.27.35-.82,0-1.65,0-2.47,0-.22,0-.29-.07-.22-.3a11.11,11.11,0,0,0,.4-3.54c0-1.81,0-3.63,0-5.44a5.66,5.66,0,0,0-.6-2.43c-.15-.34-.13-.36.25-.37.6,0,1.21,0,1.81,0a.42.42,0,0,1,.44.24,27.47,27.47,0,0,0,2.13,3.21c1.08,1.48,2.14,3,3.2,4.47.08.1.15.21.23.3s.14,0,.15,0,0-.26,0-.39v-2.75Z"/><path class="cls-1" d="M23.91,105.67a5.86,5.86,0,0,1,5.87,5.12,7.44,7.44,0,0,1-.07,2.62A6.05,6.05,0,0,1,24.49,118a7,7,0,0,1-2.24-.07,6,6,0,0,1-4.6-5.09,7.22,7.22,0,0,1,.06-2.41,6,6,0,0,1,5.65-4.78Zm3.43,6.47a4.78,4.78,0,0,0-1.4-3.52,3.38,3.38,0,0,0-5.39.9,4.22,4.22,0,0,0-.45,2.18,4.66,4.66,0,0,0,1.53,3.52,3.36,3.36,0,0,0,5-.63A4.09,4.09,0,0,0,27.34,112.14Z"/><path class="cls-1" d="M71.74,111.94A6,6,0,0,1,66.25,118a6.37,6.37,0,0,1-2.61-.21,5.81,5.81,0,0,1-4-4.58,6.21,6.21,0,0,1,0-3,5.87,5.87,0,0,1,4.68-4.44,6.57,6.57,0,0,1,2.46-.07A5.94,5.94,0,0,1,71.68,111C71.71,111.32,71.72,111.63,71.74,111.94Zm-5.9-4.28A3.54,3.54,0,0,0,62.21,110a5,5,0,0,0-.2,2.23,4.65,4.65,0,0,0,1.13,2.63,3.37,3.37,0,0,0,5.78-1.05,4.83,4.83,0,0,0-.84-4.91A3.14,3.14,0,0,0,65.84,107.66Z"/><path class="cls-1" d="M49,105.78c.77,0,1.54,0,2.31,0a5.82,5.82,0,0,1,5.49,4.9,7.46,7.46,0,0,1-.26,3.48,4.72,4.72,0,0,1-3.69,3.39,15,15,0,0,1-3.06.29c-1,0-2.09,0-3.13,0a1.82,1.82,0,0,1-.33,0c-.13,0-.2-.07-.16-.21s.1-.36.15-.53a10.05,10.05,0,0,0,.28-2.56c0-2,0-4,0-5.94a9.09,9.09,0,0,0-.37-2.49c-.09-.33-.08-.34.26-.34H49Zm1,10.28a7.13,7.13,0,0,0,2.42-.43,2.65,2.65,0,0,0,1.71-1.93,7.66,7.66,0,0,0,.22-2c-.15-2.69-2-4.47-5.13-4.15a.23.23,0,0,0-.23.25c0,.16,0,.33,0,.49V115c0,.31,0,.62.06.92Z"/><path class="cls-1" d="M46.21,123H62.6c.66,0,.75-.11.42.62-.15.33-.32.66-.45,1a.55.55,0,0,1-.62.4c-1,0-2,0-2.92,0H29.83c-.7,0-.74.14-.74-.75,0-.31,0-.63,0-.94s.1-.34.34-.32H46.21Z"/><path class="cls-1" d="M35.23,85.91c0,.33,0,.66,0,1,0,.15-.07.19-.2.11s-.25-.16-.37-.24a5,5,0,0,0-2.8-.83A3.41,3.41,0,0,0,29.1,87.3a4.46,4.46,0,0,0-.94,3,5.07,5.07,0,0,0,.46,2.13,3.43,3.43,0,0,0,3.84,2,5.43,5.43,0,0,0,2.66-1.23,1.51,1.51,0,0,1,.22-.11,1.22,1.22,0,0,1,.06.26c0,.56,0,1.13,0,1.7a.47.47,0,0,1-.29.47,6.77,6.77,0,0,1-5.49.45,5.33,5.33,0,0,1-3.74-4.48,6.16,6.16,0,0,1,2.36-6.14,5.72,5.72,0,0,1,3.41-1.22,8,8,0,0,1,3.14.41c.43.15.43.15.44.62v.77Z"/><path class="cls-1" d="M57.8,84.33c.45,0,.91,0,1.37,0s.34,0,.39.35a2.66,2.66,0,0,0,.23.89c.5,1,1,2,1.56,3,.12.21.17.21.28,0,.53-1,1.07-2,1.57-3a3.07,3.07,0,0,0,.23-1c0-.19,0-.31.28-.31h3a.15.15,0,0,1,.13.06s0,.1,0,.13A8.67,8.67,0,0,0,65,87.15c-.74,1.37-1.46,2.75-2.2,4.12a1.59,1.59,0,0,0-.18.74A13.2,13.2,0,0,0,63,95.87c.08.27,0,.32-.27.32-.8,0-1.61,0-2.42,0-.31,0-.34,0-.26-.31A13.62,13.62,0,0,0,60.41,92a1.34,1.34,0,0,0-.18-.73c-.74-1.39-1.47-2.79-2.22-4.17a9,9,0,0,0-1.83-2.59s-.07-.1,0-.13.08-.06.13-.06Z"/><path class="cls-1" d="M10.62,75.49c-.52-.1-1-.16-1.56-.3a2.43,2.43,0,0,1-1.54-1.32A6,6,0,0,1,7,71.7a.61.61,0,0,1,0-.18.88.88,0,0,0,0,.15c.1.35.19.71.32,1a3.11,3.11,0,0,0,2.87,2,7.84,7.84,0,0,0,3.18-.51,32.37,32.37,0,0,0,4.47-2c2.2-1.14,4.38-2.3,6.59-3.41a29.19,29.19,0,0,1,5.42-2.09,13.27,13.27,0,0,1,6.74,0,4.71,4.71,0,0,1,1.08.41c.64.34.68.78.11,1.22s-1,.66-1.44,1-1,.7-1.46,1.07a3.1,3.1,0,0,0-.59.66.4.4,0,0,1-.5.2,3.56,3.56,0,0,1-1.38-.64,2.08,2.08,0,0,1-.41-3,.69.69,0,0,0,.11-.13,2.53,2.53,0,0,1,.13-.22,1.11,1.11,0,0,0-.3,0c-.56.08-1.13.15-1.68.27a26.19,26.19,0,0,0-5.77,2.09c-1.44.69-2.85,1.43-4.24,2.19a35.94,35.94,0,0,1-6.43,3A13.56,13.56,0,0,1,10.62,75.49Z"/><path class="cls-1" d="M59.14,66.32a16.17,16.17,0,0,1,5.17,1,51.35,51.35,0,0,1,6.53,3c1.91,1,3.8,2,5.73,2.93a15.71,15.71,0,0,0,3.66,1.33,6,6,0,0,0,2.45.1,3,3,0,0,0,2.43-2.07c.12-.32.2-.66.3-1l.07-.15a.8.8,0,0,1,0,.15c-.08.47-.13,1-.25,1.41a2.9,2.9,0,0,1-3,2.38,9.87,9.87,0,0,1-3.41-.51,32.42,32.42,0,0,1-6.78-3.09,55.43,55.43,0,0,0-5.45-2.73,23.07,23.07,0,0,0-5.11-1.64c-.42-.08-.84-.11-1.26-.16a.34.34,0,0,0-.14,0,.39.39,0,0,0,.05.14c.07.1.17.19.24.3a2.08,2.08,0,0,1-.2,2.67,3.34,3.34,0,0,1-1.68.88.34.34,0,0,1-.42-.17,5.56,5.56,0,0,0-1.62-1.47l-1-.65c-.28-.2-.57-.39-.85-.61-.64-.51-.59-.94.15-1.31a4.63,4.63,0,0,1,.88-.32A16,16,0,0,1,59.14,66.32Z"/><path class="cls-1" d="M11.39,117.85H7.88c-.2,0-.25-.09-.21-.28.12-.59.25-1.18.33-1.78a10.53,10.53,0,0,0,.07-1.26c0-1.7,0-3.4,0-5.11a11.6,11.6,0,0,0-.39-3.26c-.1-.36-.08-.38.28-.39.88,0,1.76,0,2.63,0,.23,0,.31.07.24.29a14.5,14.5,0,0,0-.43,4.35q0,2.48,0,5c0,.66,0,.57.61.59a9.73,9.73,0,0,0,5.12-1.2.33.33,0,0,1,.1-.06l.18,0s0,.11,0,.15c-.2.48-.39,1-.58,1.43a11,11,0,0,0-.46,1.12c-.12.4-.37.5-.77.49C13.52,117.84,12.46,117.85,11.39,117.85Z"/><path class="cls-1" d="M49.64,84.33c1.51,0,3,0,4.51,0,.36,0,.37,0,.23.33-.26.57-.53,1.13-.8,1.69-.17.36-.19.37-.58.17a5.62,5.62,0,0,0-2.29-.5c-.38,0-.4,0-.4.4,0,2.45,0,4.91,0,7.36a14.71,14.71,0,0,0,.33,2.06c.06.34.06.35-.27.35-.8,0-1.61,0-2.41,0-.3,0-.34,0-.26-.32a13.16,13.16,0,0,0,.39-3.7c0-1.85,0-3.7,0-5.55,0-.63,0-.62-.65-.59a5.44,5.44,0,0,0-2.38.59c-.32.17-.35.14-.35-.24q0-.82,0-1.65c0-.39,0-.4.4-.4C46.64,84.32,48.14,84.33,49.64,84.33Z"/><path class="cls-1" d="M31.46,52.23a.82.82,0,0,1,.12.2c.07.38.13.76.22,1.13A20.59,20.59,0,0,0,37.65,64a26.14,26.14,0,0,0,8.08,5.42.89.89,0,0,0,.78,0A25.07,25.07,0,0,0,57.89,60a19.49,19.49,0,0,0,2.8-7.28,3,3,0,0,1,.08-.32s0-.08.08-.12a.47.47,0,0,1,0,.16c-.08.51-.15,1-.25,1.52a22.84,22.84,0,0,1-6.77,12.14,28,28,0,0,1-7.22,5.07.92.92,0,0,1-.88,0,26.44,26.44,0,0,1-12-11.34,21.78,21.78,0,0,1-2.32-7.41Z"/><path class="cls-1" d="M31,17.7c.39.08.79.15,1.18.24s.38,0,.29-.27a9.85,9.85,0,0,0-.55-1.61,9.64,9.64,0,0,0-.76-1.2c-.05-.08-.08-.16-.12-.24a1,1,0,0,1,.3,0,3,3,0,0,1,2.23,1.87c.12.28.23.57.34.86,0,0,.06.06.09.09s.06-.05.07-.08c.24-.83.92-1.08,1.66-1.24a.47.47,0,0,1,.16,0,.58.58,0,0,1,0,.14l-.18.21a1.83,1.83,0,0,0-.14,2.25,4.39,4.39,0,0,0,1.66,1.57c.92.49,1.87.94,2.8,1.4.12.06.24.09.36.14s.06.08.09.12a.35.35,0,0,1-.13.08l-.92.11a21.66,21.66,0,0,0-4.72,1,6.84,6.84,0,0,0-2.09,1.09c-.22.18-.41.41-.62.62l-.2.14a1.09,1.09,0,0,1-.05-.26,2.94,2.94,0,0,1,.37-1.53c.1-.21,0-.29-.18-.31a5.9,5.9,0,0,0-4.17,1l-.45.29a2.64,2.64,0,0,1,.15-.55A2.94,2.94,0,0,1,29.39,22l.58-.17c.1,0,.14-.11,0-.2a2.91,2.91,0,0,1-.33-.37.67.67,0,0,1-.1-.67c.12-.31.28-.34.5-.09a3.34,3.34,0,0,0,1.71.94,12.91,12.91,0,0,0,3.72.28L37,21.57c.06,0,.11-.07.16-.11l-.14-.07a19.5,19.5,0,0,1-1.85-.69,14.46,14.46,0,0,1-2-1.08,6.32,6.32,0,0,0-3.81-1.2h-.28L29,18.36s0-.1.09-.12A4.09,4.09,0,0,1,31,17.7Z"/><path class="cls-1" d="M57.17,21.7a13,13,0,0,0,3.36-.3,3.14,3.14,0,0,0,1.78-1c.15-.18.26-.15.38,0a.78.78,0,0,1-.15,1c-.09.11-.16.24-.25.36a3.31,3.31,0,0,0,.41.14A3.18,3.18,0,0,1,65,24a.66.66,0,0,1,0,.2.54.54,0,0,1-.19-.07A5.75,5.75,0,0,0,62.45,23a5.82,5.82,0,0,0-2.08-.09c-.18,0-.2.1-.14.26.13.36.25.72.36,1.09a1,1,0,0,1,0,.38,2.29,2.29,0,0,1-.07.36,2.1,2.1,0,0,1-.27-.24,4.86,4.86,0,0,0-1.58-1.16,13.1,13.1,0,0,0-3.56-1.09c-1-.18-2-.3-3-.44A.88.88,0,0,1,51.9,22a1.77,1.77,0,0,1,.17-.12c1-.48,2-.95,3-1.44a4.66,4.66,0,0,0,1.43-1.18,2,2,0,0,0,.07-2.86.87.87,0,0,1-.1-.19.5.5,0,0,1,.21,0,1.83,1.83,0,0,1,1.61,1.22s0,.07.08.1.05-.05.06-.08c.14-.34.28-.68.43-1a3.08,3.08,0,0,1,2.24-1.76.74.74,0,0,1,.21,0,.68.68,0,0,1-.07.2c-.31.49-.66,1-.92,1.49a6.18,6.18,0,0,0-.42,1.3c-.11.43-.08.45.33.32a3.9,3.9,0,0,1,2.27,0,5.8,5.8,0,0,1,.8.37.13.13,0,0,1,0,.09s0,.05-.07.05a2.41,2.41,0,0,1-.38,0,5.62,5.62,0,0,0-3.42,1,15,15,0,0,1-4.1,1.95,1,1,0,0,0-.17.1c.06,0,.11.09.18.1Z"/><path class="cls-1" d="M49.57,24.15c0,.58-.06,1.17-.12,1.75a2.21,2.21,0,0,1-.92,1.68,13.06,13.06,0,0,1-1.64,1c-.7.34-1.44.61-2.18.89a1.23,1.23,0,0,1-1.15-.15,4.23,4.23,0,0,1-1.77-5.07l.13-.36a.91.91,0,0,1,.87-.71c.22,0,.35-.09.39-.31s.21-.25.4-.25H49c.47,0,.47,0,.5.48s.05.7.07,1Zm-7.19,1.6a2.62,2.62,0,0,0,0,.28,3.26,3.26,0,0,0,1,2.14.41.41,0,0,0,.33.1c.16-.06.14-.23.08-.38l-.09-.2a5.49,5.49,0,0,1-.44-3.22c0-.19.1-.44-.17-.51s-.34.17-.42.35A3.24,3.24,0,0,0,42.38,25.75Zm2.32-.93s0-.19,0-.36.13-.44-.16-.5-.32.18-.41.35a1,1,0,0,0-.07.15,3,3,0,0,0,.53,3.09c.23.28.4.36.54.24s0-.37,0-.54A5.17,5.17,0,0,1,44.7,24.82Zm.69.47A2.88,2.88,0,0,0,46,27.07a1,1,0,0,0,.25.2.19.19,0,0,0,.3-.18,1.21,1.21,0,0,0-.12-.41,4.26,4.26,0,0,1-.28-2.26.45.45,0,0,0,0-.16c0-.11-.09-.27-.16-.29a.39.39,0,0,0-.32.13.84.84,0,0,0-.17.34C45.5,24.76,45.44,25.08,45.39,25.29Z"/><path class="cls-1" d="M14.39,43.61a4.86,4.86,0,0,1-.81-.25,10,10,0,0,1-3.53-2.83,15.1,15.1,0,0,1-2.18-3.61c-.18-.42-.19-.44-.64-.33L2.81,37.72c-.16,0-.32.2-.49,0a4.5,4.5,0,0,1,.37-.28,36.83,36.83,0,0,1,4.12-1.82c.48-.17.48-.17.31-.68a25.46,25.46,0,0,1-1.07-4,32.89,32.89,0,0,1-.39-5.15.56.56,0,0,1,0-.22s.07-.06.12-.08.06,0,.07.07c0,.2.07.4.09.6A27.29,27.29,0,0,0,8.3,34.68c.19.41.19.4.61.32.63-.11,1.26-.23,1.9-.32a1.89,1.89,0,0,1,.71,0,.67.67,0,0,1,.56.71c0,.29-.2.5-.58.55-.56.08-1.13.11-1.7.17-1,.09-.76.14-.4.78A12.21,12.21,0,0,0,14.5,42a2.42,2.42,0,0,1,.62.44c.46.45.3.94-.32,1.09A3.71,3.71,0,0,1,14.39,43.61Z"/><path class="cls-1" d="M86.65,26.86a24.89,24.89,0,0,1-1.4,8c-.25.7-.31.56.42.86,1.35.58,2.68,1.18,4,1.77a1.49,1.49,0,0,1,.24.14.32.32,0,0,1,.07.13s-.12.08-.17.07a2.24,2.24,0,0,1-.37-.1l-4.2-1.08a1.65,1.65,0,0,1-.32-.06c-.26-.1-.36,0-.45.25s-.25.57-.39.85a12.46,12.46,0,0,1-4.16,5,10.32,10.32,0,0,1-1.34.74,1.52,1.52,0,0,1-1.18.1.57.57,0,0,1-.29-1,2.51,2.51,0,0,1,.69-.52A12.29,12.29,0,0,0,83,36.73c.28-.49.27-.51-.29-.57s-1-.09-1.48-.14a2.73,2.73,0,0,1-.49-.06c-.36-.09-.51-.26-.53-.54a.68.68,0,0,1,.51-.7,2.16,2.16,0,0,1,.76,0c.64.08,1.27.21,1.9.32.42.08.42.09.61-.32a26.87,26.87,0,0,0,2.31-8.38c0-.24.06-.47.1-.71,0-.05.09-.08.14-.13s.07.09.07.13c0,.31,0,.62,0,.94Z"/><path class="cls-1" d="M41.28,90.22c0,1.12,0,2.24,0,3.35a8.81,8.81,0,0,0,.31,2.17c.12.43.1.45-.32.45q-1.12,0-2.25,0c-.38,0-.41,0-.32-.36a12.42,12.42,0,0,0,.38-3.49V88.11a12.84,12.84,0,0,0-.37-3.43c-.1-.32-.07-.35.26-.35.82,0,1.65,0,2.47,0,.15,0,.26,0,.21.21A19.71,19.71,0,0,0,41.28,90.22Z"/><path class="cls-1" d="M44.45,19.86c-.77,0-.81,0-.57-.76A2,2,0,0,0,43,16.5a5.88,5.88,0,0,1-.76-.55A1.2,1.2,0,0,1,42,14.27a6,6,0,0,1,.66-.87c1.39-1.58,2.82-3.14,4.09-4.82A33.83,33.83,0,0,0,51.45.3a1.89,1.89,0,0,1,.19-.3,1.33,1.33,0,0,1,0,.4,38.75,38.75,0,0,1-2.44,5.88,36.85,36.85,0,0,1-4.85,7.25A4.12,4.12,0,0,0,44,14a1,1,0,0,0,.16,1.54,2.89,2.89,0,0,0,.47.38,2.26,2.26,0,0,1,1,1.91A5.33,5.33,0,0,1,45.49,19C45.35,19.75,45.19,19.86,44.45,19.86Z"/><path class="cls-1" d="M32.17,76.64s.1,0,.12.08a4.34,4.34,0,0,0,3.72,2c.64,0,1.28,0,1.92,0h17a23.49,23.49,0,0,0,2.52-.1,4.1,4.1,0,0,0,3.06-1.83,1,1,0,0,1,.18-.18h0A3.69,3.69,0,0,1,58,79.48a3.9,3.9,0,0,1-1.08.13h-21a3.85,3.85,0,0,1-3.74-2.77.54.54,0,0,1,0-.22Z"/><path class="cls-1" d="M49.7,9.94a25,25,0,0,1-.44,4.31c-.12.6-.12.59.44.79a14.89,14.89,0,0,1,2.69,1.24,2.05,2.05,0,0,1,.34.32c-.16.14-.3,0-.45,0l-2.85-.82c-.46-.12-.47-.11-.59.34a21,21,0,0,1-1.19,3.24.87.87,0,0,1-1.2.52c-.21-.06-.27-.17-.18-.37s.16-.28.24-.43a21.91,21.91,0,0,0,1.31-3.31c.09-.3.07-.33-.25-.38l-1.47-.2a1.75,1.75,0,0,1-.33,0c-.27-.07-.41-.23-.4-.45a.48.48,0,0,1,.42-.44,1.63,1.63,0,0,1,.54,0c.49.08,1,.18,1.46.28s.39.08.49-.27a34,34,0,0,0,1.07-5.1c0-.25.06-.51.1-.76a.73.73,0,0,1,.09-.23c0,.07.11.14.12.21,0,.41,0,.81,0,1.21Z"/><path class="cls-1" d="M63.43,11.78l2.29.31A3.44,3.44,0,0,0,68,11.77a.59.59,0,0,1,.14,0c0,.05,0,.11,0,.15a4.1,4.1,0,0,1-2.1,2,2.19,2.19,0,0,1-1.24.1c-.28-.06-.36,0-.39.28a2.49,2.49,0,0,1-.16.53,1.52,1.52,0,0,1-1,.9c-.16,0-.19-.05-.15-.18a5.81,5.81,0,0,0,.2-.9,1,1,0,0,0-1-1.17,2.77,2.77,0,0,0-1.65.29l-.44.24h-.1s0-.1,0-.13a4.22,4.22,0,0,1,2.39-1.92A9.77,9.77,0,0,1,63.43,11.78Z"/><path class="cls-1" d="M29.1,14.74c0,.15.11.43.18.71a1.13,1.13,0,0,1,0,.26,1.09,1.09,0,0,1-.26-.05,1.53,1.53,0,0,1-1-1.09c0-.12-.06-.25-.09-.37s-.09-.25-.3-.21a2.64,2.64,0,0,1-2.48-.86,11.13,11.13,0,0,1-.92-1.22s0-.1,0-.15.11,0,.14,0a4.46,4.46,0,0,0,3,.24c.45-.06.9-.15,1.36-.18A3.49,3.49,0,0,1,31.57,13c.25.27.46.57.69.86,0,0,0,.09,0,.14s-.11,0-.15,0l-.48-.26a2.71,2.71,0,0,0-1.61-.25C29.41,13.57,29.09,14,29.1,14.74Z"/><path class="cls-1" d="M46.26,101a2.46,2.46,0,1,1-2.4-2.51A2.37,2.37,0,0,1,46.26,101Zm-3.88-.09a1.83,1.83,0,0,0,.47,1.27,1.34,1.34,0,0,0,2.3-.46,1.92,1.92,0,0,0-.3-1.86,1.27,1.27,0,0,0-1-.55C43,99.22,42.39,99.85,42.38,100.89Z"/><path class="cls-1" d="M41.76,22.75l-.21.2c-.42.34-.86.64-1.24,1a15.52,15.52,0,0,0-1.45,1.58,5.13,5.13,0,0,0-1.12,3,.54.54,0,0,1-.1.22.66.66,0,0,1-.14-.15,3.4,3.4,0,0,1-.45-1.84c0-.48,0-.48-.44-.32a4.84,4.84,0,0,0-1.67,1c-.1.1-.2.21-.31.3a1.86,1.86,0,0,1-.19.11.5.5,0,0,1,0-.21,8,8,0,0,1,.36-.85,5.52,5.52,0,0,1,1.37-1.63,11.43,11.43,0,0,1,4.15-2.19c.4-.12.81-.22,1.21-.33A1.52,1.52,0,0,1,41.76,22.75Z"/><path class="cls-1" d="M54.69,28.84a1.31,1.31,0,0,1,0-.22c-.07-.44-.1-.88-.21-1.3A6.11,6.11,0,0,0,53.17,25a12.7,12.7,0,0,0-2.06-1.89c-.12-.09-.24-.17-.35-.27s0-.09,0-.14l.11,0,.16,0a12.67,12.67,0,0,1,4.82,2.17A9,9,0,0,1,57,26.07a8,8,0,0,1,.78,1.25,2.64,2.64,0,0,1,.14.57c-.15-.11-.32-.2-.46-.32a4.94,4.94,0,0,0-1.91-1.16c-.2-.06-.27,0-.27.19a8.43,8.43,0,0,1,0,.87,2.68,2.68,0,0,1-.44,1.23A1.4,1.4,0,0,1,54.69,28.84Z"/><path class="cls-1" d="M21.46,66.6a.64.64,0,0,0-.07.19l0,1c0,.37,0,.74,0,1.1a3,3,0,0,1-.08.41c-.13-.07-.26-.12-.38-.2l-1.49-1a2,2,0,0,0-.33-.16,2,2,0,0,0,.09.35c.28.53.57,1.06.86,1.59A.43.43,0,0,1,20,70c-.24.13-.48.25-.73.36a.26.26,0,0,1-.09-.11,15.54,15.54,0,0,0-1.16-2.84,2.59,2.59,0,0,0-.3-.46c-.08-.1-.24-.2-.24-.3s.63-.37.76-.3a3,3,0,0,1,.37.25l1.81,1.24c.23.16.27.13.28-.15,0-.78,0-1.57.05-2.36a.7.7,0,0,1,.14-.44c.31-.33.49-.26.68.15a16.08,16.08,0,0,0,1.73,3c.18.23.18.23-.09.38L23,68.5c-.44.22-.41.21-.61-.23s-.54-1-.82-1.55A.4.4,0,0,0,21.46,66.6Z"/><path class="cls-1" d="M64.48,17a3.06,3.06,0,0,1,2.13,1c.27.27.49.59.75.88s.66.78,1,1.14a2.1,2.1,0,0,0,1.12.66s.08,0,.12.06-.07.1-.11.12a2.26,2.26,0,0,1-3-.51c-.19-.24-.21-.25-.43,0a1.43,1.43,0,0,1-1.41.42c-.13,0-.19-.1-.09-.22s.26-.31.37-.48a1.64,1.64,0,0,0-.58-2.41,6.36,6.36,0,0,0-.65-.28l-.23-.11a1,1,0,0,1,.26-.15C64,17,64.24,17,64.48,17Z"/><path class="cls-1" d="M27.88,17a4,4,0,0,1,.49,0,4,4,0,0,1,.44.17l-.4.21a4.57,4.57,0,0,0-.75.43A1.59,1.59,0,0,0,27.33,20c.07.11.16.21.22.32a3.9,3.9,0,0,1,.19.35,3,3,0,0,1-.41.09,1.25,1.25,0,0,1-1.08-.44c-.24-.24-.26-.24-.47,0a2.29,2.29,0,0,1-3,.46s-.06-.08-.09-.12l.1,0a2.19,2.19,0,0,0,1.25-.75c.44-.48.86-1,1.29-1.5a4.47,4.47,0,0,1,1.27-1.1A2.55,2.55,0,0,1,27.88,17Z"/><path class="cls-1" d="M.27,39.5a3.23,3.23,0,0,1,.58.24c.3.21.57.47.85.7a10,10,0,0,0,.79.67,1.57,1.57,0,0,0,1.8.18s.13,0,.19,0a.86.86,0,0,1,0,.16,1.22,1.22,0,0,1-.91.79.67.67,0,0,0-.18.11,1,1,0,0,0,.16.12,9,9,0,0,1,2,1.16,7.29,7.29,0,0,1,2,2.37c0,.05,0,.12,0,.18l-.15,0a3.07,3.07,0,0,0-.64-.3,1.31,1.31,0,0,1-.9-.7,5.46,5.46,0,0,0-1-1.11,15.06,15.06,0,0,0-1.36-1A4.83,4.83,0,0,0,3,42.71a4.44,4.44,0,0,1,.15.52,3,3,0,0,1,0,.6,2.37,2.37,0,0,1-.11.46c-.1-.11-.21-.22-.31-.34l-.43-.5A4,4,0,0,1,1.48,42,3.71,3.71,0,0,0,.07,39.75.32.32,0,0,1,0,39.62Z"/><path class="cls-1" d="M89.14,43.53c0-.18.14-.44.21-.7a.34.34,0,0,0,0-.14l-.1,0a7.61,7.61,0,0,0-2.9,2.56.77.77,0,0,1-.61.47,3.28,3.28,0,0,0-.7.3l-.29.09c0-.1.07-.2.12-.3a7.8,7.8,0,0,1,3.57-3.22l.45-.2.09-.06s-.06-.1-.1-.11-.24-.07-.36-.13a1.15,1.15,0,0,1-.63-.65.5.5,0,0,1,0-.21,1.33,1.33,0,0,1,.19.05,1.55,1.55,0,0,0,1.71-.16,9.16,9.16,0,0,0,.84-.7c.28-.23.54-.49.84-.7a1.56,1.56,0,0,1,.56-.2c.09,0,.2,0,.3.06a1.5,1.5,0,0,1-.2.23,3.46,3.46,0,0,0-1.19,1.87,4.6,4.6,0,0,1-1.12,2c-.15.16-.26.35-.4.53a.48.48,0,0,1-.11.09c0-.05-.08-.09-.09-.14S89.17,43.81,89.14,43.53Z"/><path class="cls-1" d="M36.13,77.51h-.05l-.87,0c0-.27.07-.53.08-.8a15.39,15.39,0,0,0-.1-3.39c0-.14,0-.22.16-.22a12.82,12.82,0,0,1,2,.12,2.19,2.19,0,0,1-.41,4.32c-.26,0-.51,0-.77,0Zm0-2.25c0,.48,0,.95,0,1.43,0,.17.05.27.25.27a1.73,1.73,0,0,0,1.72-1.53,1.87,1.87,0,0,0-1.69-1.78c-.23,0-.28.1-.28.3C36.17,74.39,36.16,74.82,36.16,75.26Z"/><path class="cls-1" d="M43.63,73a5.75,5.75,0,0,1,.93.09,1.29,1.29,0,0,1,1,1.63,1.28,1.28,0,0,1-.59.7c-.31.21-.32.22-.07.52s.62.72.93,1.08l.26.28c.08.1,0,.16-.07.19a1,1,0,0,1-1-.29c-.28-.31-.57-.61-.86-.92-.07-.08-.14-.18-.21-.25a.67.67,0,0,0-.18-.11c0,.06-.07.12-.06.18,0,.38.06.77.12,1.14,0,.18,0,.24-.18.23h-.44c-.5,0-.48,0-.42-.47A7.38,7.38,0,0,0,42.88,76a14,14,0,0,0-.11-2.74s.09-.17.14-.17c.24,0,.48,0,.72,0Zm.11,1.39h0v.38c0,.45.06.48.48.32a1.21,1.21,0,0,0,.2-.09.66.66,0,0,0,0-1.22,1.38,1.38,0,0,0-.4-.15c-.17,0-.29,0-.29.21S43.74,74.24,43.74,74.43Z"/><path class="cls-1" d="M39.26,43.91a.24.24,0,0,1-.33.27,4.48,4.48,0,0,0-.47-.28c-.26-.11-.33-.07-.37.19-.06.49-.1,1-.14,1.47,0,.07,0,.17,0,.21s-.18.25-.3.27-.26-.09-.27-.27c0-.48-.07-1-.11-1.46,0-.29-.07-.53-.45-.56a1.47,1.47,0,0,1-.54-.25.41.41,0,0,1-.2-.25.37.37,0,0,1,.08-.28s.16,0,.24,0,.34.21.52.28.32,0,.34-.23,0-.25,0-.38q.06-3.27.11-6.54c0-.24,0-.49.24-.62s.25.23.26.64q.06,3.07.11,6.15c0,.16,0,.33,0,.49,0,.46,0,.45.45.6a3.87,3.87,0,0,1,.67.35A.42.42,0,0,1,39.26,43.91Z"/><path class="cls-1" d="M64.7,61.84a4.24,4.24,0,0,1,.76.32.68.68,0,0,1,.22.42c.27.89.52,1.79.78,2.68a.93.93,0,0,0,.1.2c0-.06.11-.1.13-.17.24-.71.48-1.41.71-2.13,0-.15.1-.23.26-.17l.11,0c.54.18.53.17.26.67a4.38,4.38,0,0,0-.31.7c-.31.82-.61,1.64-.91,2.47-.07.21-.17.24-.36.17a.66.66,0,0,1-.51-.56c-.21-.89-.49-1.76-.75-2.64,0,0-.06-.08-.08-.11s-.1.06-.12.1c-.23.67-.48,1.34-.69,2-.1.31-.07.32-.39.21l0,0c-.48-.17-.47-.17-.22-.61a5.42,5.42,0,0,0,.32-.69c.22-.54.42-1.09.64-1.64a1.21,1.21,0,0,0,.07-1C64.65,62,64.69,62,64.7,61.84Z"/><path class="cls-1" d="M25.71,62.55c.11.06.24.12.36.2.68.46,1.36.92,2.05,1.37l.36.25.11,0c0-.05.05-.11,0-.14-.27-.72-.54-1.44-.83-2.14-.08-.17-.11-.26.09-.33l.26-.08c.36-.12.35-.12.43.25a7.55,7.55,0,0,0,.22.85q.45,1.27.93,2.52c.06.18.05.26-.14.33a.7.7,0,0,1-.79-.08c-.72-.54-1.48-1-2.23-1.51a.53.53,0,0,0-.19,0,.49.49,0,0,0,0,.21c.25.66.51,1.33.79,2,.08.19,0,.24-.13.32-.6.24-.59.25-.7-.36a5,5,0,0,0-.18-.63c-.19-.57-.39-1.14-.58-1.72A1.17,1.17,0,0,0,25,63c-.19-.09-.14-.19,0-.24S25.45,62.63,25.71,62.55Z"/><path class="cls-1" d="M70.66,68.83a2.32,2.32,0,0,1-2.21-1.44,2.12,2.12,0,0,1,1.7-2.91,2.42,2.42,0,0,1,2.45,1.31A2.11,2.11,0,0,1,70.66,68.83Zm-1.55-2.24a1.54,1.54,0,0,0,1.46,1.61A1.43,1.43,0,0,0,72,66.7a1.51,1.51,0,0,0-1.45-1.61A1.45,1.45,0,0,0,69.11,66.59Z"/><path class="cls-1" d="M15.86,72a2.26,2.26,0,0,1-2.33-1.58,2.12,2.12,0,0,1,1-2.41,2.43,2.43,0,0,1,2.64.08,2.11,2.11,0,0,1,0,3.36A2.45,2.45,0,0,1,15.86,72Zm1.35-2a1.76,1.76,0,0,0-1-1.53,1.44,1.44,0,0,0-2,.9,1.65,1.65,0,0,0,1.27,1.95A1.38,1.38,0,0,0,17.21,70Z"/><path class="cls-1" d="M52.32,73l1,.12c.35.06.35.07.37.42,0,.6,0,.59-.55.35a3.93,3.93,0,0,0-1-.25A1.46,1.46,0,0,0,50.47,75a1.83,1.83,0,0,0,2.21,2c.21,0,.27-.17.26-.36,0-.38,0-.77-.09-1.15,0-.16,0-.24.17-.24h.06l.76,0c0,.23,0,.46,0,.69s0,.77,0,1.15c0,.22-.05.34-.27.38a4.25,4.25,0,0,1-2.59-.16,2.11,2.11,0,0,1-.69-3.49A2.78,2.78,0,0,1,52.32,73Z"/><path class="cls-1" d="M10.73,69.31a2.27,2.27,0,0,1,2.33,1.84,2.11,2.11,0,0,1-1.75,2.3c-.41.08-.83.14-1.24.21-.16,0-.25,0-.24-.2a16.18,16.18,0,0,0-.37-2.77,4,4,0,0,0-.23-.84c-.08-.2-.06-.32.16-.35Zm-.16.54c-.35.06-.41.09-.37.31.14.88.29,1.76.44,2.64,0,.16.11.21.27.18a1.68,1.68,0,0,0,1.34-1.28,1.51,1.51,0,0,0-.86-1.57C11.13,70,10.84,70,10.57,69.85Z"/><path class="cls-1" d="M49.52,98.53c.44,0,.88,0,1.32,0,.17,0,.24.06.16.23l-.18.4c-.16.33-.16.3-.53.22a9.66,9.66,0,0,0-1.08-.14c-.17,0-.29.06-.28.25v.11c0,1.12-.15.94.91,1,.67,0,.67,0,.33.59l-.11.19a.21.21,0,0,1-.3.12c-.84-.27-.85-.27-.83.59,0,.34.07.69.11,1s.05.29-.25.3h-.66c-.21,0-.23-.1-.21-.27a16.49,16.49,0,0,0,0-4.27c0-.21,0-.31.24-.3C48.6,98.54,49.06,98.53,49.52,98.53Z"/><path class="cls-1" d="M56.54,77.51H55.39c-.14,0-.18-.05-.16-.2a13.34,13.34,0,0,0,0-4c0-.22,0-.26.22-.26h2.26c.19,0,.27.08.18.27a1.76,1.76,0,0,0-.09.2c-.08.2-.19.26-.42.21a5.62,5.62,0,0,0-.92-.09c-.19,0-.27.09-.26.27s0,.65,0,1l.9.08h.06l.45.08c-.06.15-.11.31-.17.46s-.2.12-.33.11-.43-.06-.65-.08-.31.07-.3.29,0,.22,0,.33c0,.83-.17.81.86.75a3.8,3.8,0,0,0,.86-.19c.19,0,.22,0,.18.19a.38.38,0,0,1,0,.1c-.12.49-.12.49-.61.49Z"/><path class="cls-1" d="M30.61,64.8c-.19-1.08-.38-2.16-.59-3.23,0-.21,0-.31.19-.34L32.33,61c.15,0,.22,0,.19.17s-.08.21-.1.31-.13.26-.31.2l-.11,0-1,.11c0,.34,0,.68.08,1,0,.17.16.17.3.15l.87-.11c.22,0,.25,0,.2.25s-.11.38-.52.39c-.75,0-.75,0-.66.75s.08.64.71.5a6.34,6.34,0,0,0,.93-.31c.19-.07.22,0,.21.17,0,.49-.08.57-.55.63l-1.68.23c-.35,0-.44.06-.39-.36a1.61,1.61,0,0,0,0-.22Z"/><path class="cls-1" d="M73.93,70.72a2.48,2.48,0,0,1-1.5-.77c-.11-.11,0-.62.2-.66s.13,0,.18.1.28.33.45.47a1.47,1.47,0,0,0,.47.27.47.47,0,0,0,.54-.17.46.46,0,0,0,.08-.56c-.1-.18-.22-.34-.33-.51a6.31,6.31,0,0,1-.4-.65,1.11,1.11,0,0,1,1.15-1.6,2.45,2.45,0,0,1,1.38.73c.12.1-.05.61-.21.66s-.09,0-.12-.06a4.31,4.31,0,0,0-.39-.46,1.85,1.85,0,0,0-.47-.27.4.4,0,0,0-.53.16.75.75,0,0,0-.06.51,1.26,1.26,0,0,0,.25.41,6.62,6.62,0,0,1,.44.64A1.16,1.16,0,0,1,73.93,70.72Z"/><path class="cls-1" d="M88.72,23.46a6,6,0,0,1,.65-2.74c.08-.16.11-.42.38-.37a1.47,1.47,0,0,1,0,.45A15.67,15.67,0,0,0,90,26.9c.05.2.27.51,0,.61s-.33-.29-.43-.49A7.85,7.85,0,0,1,88.72,23.46Z"/><path class="cls-1" d="M88.24,34.13A9.46,9.46,0,0,1,89,30.8a6.37,6.37,0,0,1,.63-1c0-.08.21-.09.32-.13a.82.82,0,0,1,0,.31,17.91,17.91,0,0,0-.9,6.16.78.78,0,0,1,0,.22.17.17,0,0,1-.3.08,1.25,1.25,0,0,1-.18-.39C88.41,35.4,88.33,34.76,88.24,34.13Z"/><path class="cls-1" d="M3.6,23.63a7.7,7.7,0,0,1-.69,3.22,2.7,2.7,0,0,1-.17.34c-.09.15-.16.4-.37.32s-.08-.31-.05-.47a15.49,15.49,0,0,0,.37-5.55c0-.35-.11-.69-.15-1a.16.16,0,0,1,.06-.13.17.17,0,0,1,.14,0,4.48,4.48,0,0,1,.28.47A6.19,6.19,0,0,1,3.6,23.63Z"/><path class="cls-1" d="M4.07,34.28C4,34.8,3.91,35.41,3.81,36a.83.83,0,0,1-.14.35.32.32,0,0,1-.24.08.25.25,0,0,1-.09-.17,1.82,1.82,0,0,1,0-.33,18.79,18.79,0,0,0-.89-6,.74.74,0,0,1-.07-.21c0-.12.1-.22.2-.14A2,2,0,0,1,3,30a6.07,6.07,0,0,1,.93,2.5C4,33.07,4,33.62,4.07,34.28Z"/><path class="cls-1" d="M4.25,37.78a1.89,1.89,0,0,1,.38.11A9.16,9.16,0,0,1,6,38.65,9.65,9.65,0,0,1,8.8,42.17a2.8,2.8,0,0,1,.18.51c0,.09-.05.2-.08.3a2.21,2.21,0,0,1-.27-.12.59.59,0,0,1-.13-.18,21,21,0,0,0-4.28-4.54s-.07,0-.08-.07-.08-.13-.06-.18S4.19,37.82,4.25,37.78Z"/><path class="cls-1" d="M88.29,38a1.17,1.17,0,0,1-.15.16,20.67,20.67,0,0,0-4.38,4.67.75.75,0,0,1-.14.17.16.16,0,0,1-.28-.11,1,1,0,0,1,.09-.42,15.29,15.29,0,0,1,.82-1.49,8.83,8.83,0,0,1,2.25-2.39,8.92,8.92,0,0,1,1.3-.68.77.77,0,0,1,.37,0S88.24,37.9,88.29,38Z"/><path class="cls-1" d="M40.41,75.28c0-.67-.12-1.35-.16-2,0-.06.07-.14.13-.18s.11,0,.16,0l.76,0c0,.23,0,.45-.06.68a15.92,15.92,0,0,0,.1,3.45c0,.24,0,.28-.23.28h-.72c-.14,0-.17-.07-.16-.21C40.3,76.63,40.36,76,40.41,75.28Z"/><path class="cls-1" d="M47.8,77.51c-.57,0-.57,0-.48-.56a3,3,0,0,0,0-.6c0-.7,0-1.4,0-2.09,0-.31-.06-.62-.1-.93s0-.27.23-.27a1.61,1.61,0,0,1,.22,0c.19,0,.45,0,.57.08s0,.36,0,.55c0,1.15,0,2.3.06,3.45,0,.36.06.36-.3.37Z"/><path class="cls-1" d="M25.4,67.21s-.06.09-.1.12a1.59,1.59,0,0,1-.29.15l-.56.21c-.05-.17-.1-.35-.16-.51a17,17,0,0,0-1.49-3c-.12-.18-.13-.28.09-.36l.15-.07c.18-.07.4-.23.54-.18s.14.33.22.51a17.64,17.64,0,0,0,1.49,3Z"/><path class="cls-1" d="M50.77,5.32c0-.26.13-.74.23-1.23,0,0,.1-.09.14-.14a.76.76,0,0,1,.09.18c.05.54.08,1.09.16,1.63a10.11,10.11,0,0,0,1,3c.06.13.14.26.19.39a.3.3,0,0,1-.07.19.15.15,0,0,1-.14,0,1.37,1.37,0,0,1-.28-.26A5.57,5.57,0,0,1,50.77,5.32Z"/><path class="cls-1" d="M1.19,28.2A6.61,6.61,0,0,1,4,28.77a6.84,6.84,0,0,1,.9.53.79.79,0,0,1,.24.35.24.24,0,0,1-.32.3.71.71,0,0,1-.25-.11,8.51,8.51,0,0,0-3.11-1.17c-.37-.1-.75-.17-1.12-.26a.14.14,0,0,1-.09-.11.13.13,0,0,1,.1-.09Z"/><path class="cls-1" d="M91.15,28.21c.3,0,.59,0,.88,0,0,0,.07.07.08.11s0,.08-.06.08c-.19.06-.39.09-.58.14-.77.2-1.53.37-2.28.61a9.41,9.41,0,0,0-1.28.62c-.2.1-.39.33-.63.11s0-.41.29-.66a5.22,5.22,0,0,1,2.17-.88c.46-.08.94-.12,1.41-.18Z"/><path class="cls-1" d="M31.28,39.51V42.8a.78.78,0,0,1,0,.21,1.46,1.46,0,0,1,0-.2c-.11-1.45-.22-2.89-.32-4.33-.06-.81-.11-1.61-.15-2.42,0-.11,0-.28.08-.33s.47.16.48.31,0,.26,0,.39v3.08Z"/><path class="cls-1" d="M61,39.49c0-1.08,0-2.16,0-3.24,0-.13,0-.3.06-.36a1,1,0,0,1,.45-.16,1.33,1.33,0,0,1,0,.34c-.14,2.19-.3,4.38-.45,6.57,0,.07,0,.14,0,.21s0,.11,0,.16a.61.61,0,0,1,0-.18V39.49Z"/><path class="cls-1" d="M48.75,19.65a4.26,4.26,0,0,1,1.92-2.83.54.54,0,0,1,.25-.09.14.14,0,0,1,.14.05s0,.1,0,.14a1.14,1.14,0,0,1-.15.16,9,9,0,0,0-1.68,2.34,1,1,0,0,1-.15.29c0,.07-.13.1-.2.14Z"/><path class="cls-1" d="M51,13.88A4.11,4.11,0,0,1,51.54,12a3.28,3.28,0,0,1,.32-.44c0-.05.16-.05.24-.07s0,.14,0,.2a8,8,0,0,0-.6,3.1.44.44,0,0,1,0,.16s-.07.12-.09.12-.16,0-.17-.1C51.14,14.63,51.08,14.25,51,13.88Z"/><path class="cls-1" d="M11.07,42.88a.59.59,0,0,1,.24.09.29.29,0,0,1,.11.22.28.28,0,0,1-.15.2,6.36,6.36,0,0,0-.62.19c-.55.29-1.08.61-1.61.93-.13.07-.24.17-.36.25s-.06,0-.1,0v-.14a.08.08,0,0,1,0,0,3.83,3.83,0,0,1,2.24-1.66Z"/><path class="cls-1" d="M81.41,42.89c.21.08.49.17.75.29a3.79,3.79,0,0,1,1.56,1.41s0,.13,0,.19a.39.39,0,0,1-.14-.05l-.44-.32a5.64,5.64,0,0,0-1.94-1c-.16,0-.35-.07-.3-.3S81.14,42.88,81.41,42.89Z"/><path class="cls-1" d="M53.47,10.06l.43.07c-.1.24-.34.15-.51.18a8,8,0,0,0-2.63.9.39.39,0,0,1-.2.08c-.08,0-.21,0-.23-.1a.35.35,0,0,1,0-.29,1.72,1.72,0,0,1,.47-.28A7.07,7.07,0,0,1,53.47,10.06Z"/><path class="cls-1" d="M44.59,20.62c.48-.09.66.24.83.64.24.56.21.6-.39.6a.68.68,0,0,1-.75-.49c-.05-.12-.11-.23-.16-.35-.12-.31-.07-.38.27-.4Z"/><path class="cls-1" d="M46.92,20.62a1.05,1.05,0,0,1,1,1.06c0,.06-.13.16-.21.18-.62.11-.85,0-1.11-.59a.93.93,0,0,0-.05-.1C46.32,20.67,46.36,20.62,46.92,20.62Z"/><path class="cls-1" d="M49.36,20.62a1.21,1.21,0,0,1,.27,0,.62.62,0,0,1,.45.56.66.66,0,0,1-.39.6.49.49,0,0,1-.63-.19,2.81,2.81,0,0,1-.19-.39C48.61,20.65,48.63,20.62,49.36,20.62Z"/><path class="cls-1" d="M42.76,20.75s.07,0,.09.06c.12.27.24.53.34.8,0,.05-.12.21-.17.21a.55.55,0,0,1-.5-.37.66.66,0,0,1,.14-.66Z"/><path class="cls-1" d="M60.68,76.64l0-.14.06,0-.09.09Z"/><path class="cls-1" d="M32.09,76.38l0,0,0,0,0,0Z"/><path class="cls-1" d="M32.18,76.63l-.09-.25v0l.09.24Z"/><path class="cls-1" d="M29.24,50.71h0Z"/><polygon class="cls-1" points="63 50.67 63 50.65 62.98 50.66 63 50.67"/></g></g></svg>