<svg xmlns="http://www.w3.org/2000/svg" viewBox="0 0 21.83 21.63"><defs><style>.cls-1{fill:#d8d8d8;}</style></defs><title>instagram</title><g id="Layer_2" data-name="Layer 2"><g id="project"><path class="cls-1" d="M5.7,19.66ZM16.14,1.18Z"/><path class="cls-1" d="M10.92,17.33A6.51,6.51,0,1,0,4.4,10.82,6.52,6.52,0,0,0,10.92,17.33ZM6,10.82a4.94,4.94,0,1,1,4.94,4.93A5,5,0,0,1,6,10.82Z"/><path class="cls-1" d="M17.41,21.63h-13A4.42,4.42,0,0,1,0,17.21V4.42A4.42,4.42,0,0,1,4.42,0h13a4.42,4.42,0,0,1,4.42,4.42V17.21A4.42,4.42,0,0,1,17.41,21.63Zm-13-20A2.81,2.81,0,0,0,1.61,4.42V17.21A2.81,2.81,0,0,0,4.42,20h13a2.81,2.81,0,0,0,2.81-2.81V4.42a2.81,2.81,0,0,0-2.81-2.81Z"/></g></g></svg>