<svg xmlns="http://www.w3.org/2000/svg" viewBox="0 0 22.85 18.39"><defs><style>.cls-1{fill:#d8d8d8;}</style></defs><title>twitter</title><g id="Layer_2" data-name="Layer 2"><g id="project"><path class="cls-1" d="M22.75,2.27a9.65,9.65,0,0,1-2.47.64,4.68,4.68,0,0,0,2-2.39.08.08,0,0,0-.11-.09,9.35,9.35,0,0,1-2.82,1A4.73,4.73,0,0,0,15.91,0,4.68,4.68,0,0,0,11.2,4.64a4.59,4.59,0,0,0,.12,1.06A13.47,13.47,0,0,1,1.62.88s0,0,0,0A4.59,4.59,0,0,0,3,7,0,0,0,0,1,3,7a4.81,4.81,0,0,1-2-.55s0,0,0,0a6.18,6.18,0,0,0,.31,1.7,4.78,4.78,0,0,0,3.47,2.87,5.16,5.16,0,0,1-1.25.16,4.78,4.78,0,0,1-.84-.08s0,0,0,0A4.73,4.73,0,0,0,6.9,14.38a0,0,0,0,1,0,0,9.61,9.61,0,0,1-5.8,1.94A8.32,8.32,0,0,1,0,16.3a13.5,13.5,0,0,0,7.23,2.09,13.14,13.14,0,0,0,8.83-3.19A13.71,13.71,0,0,0,20.33,8a12.8,12.8,0,0,0,.32-2.8c0-.2,0-.4,0-.6a9.42,9.42,0,0,0,2.21-2.2A.08.08,0,0,0,22.75,2.27Z"/></g></g></svg>