<svg xmlns="http://www.w3.org/2000/svg" viewBox="0 0 94.08 45.84"><defs><style>.cls-1{fill:#b2b2b2;}</style></defs><title>veri-sign</title><g id="Layer_2" data-name="Layer 2"><g id="project"><path class="cls-1" d="M93.1,20.85a15.93,15.93,0,0,0-5.7-7.19,26.59,26.59,0,0,0-4.77-2.39,16,16,0,0,0-5.53-.89c-7.09-.07-14.19,0-21.28,0H38.38c-.79,0-.79,0-.82-.89H36.08c0,.88,0,.88-.68.89H35c-.48.07-.78,0-.68-.61,0-.07-.24-.25-.38-.26-.54,0-1.08,0-1.62,0a1.21,1.21,0,0,1-.78-.27,17.8,17.8,0,0,0-5.95-2.76,21.49,21.49,0,0,0-4.82-.8A24.44,24.44,0,0,0,17,5.86a15.23,15.23,0,0,0-4.78,1.33,23,23,0,0,0-5,3.05A21.08,21.08,0,0,0,3.54,14.3,18.57,18.57,0,0,0,1,19.3a14.28,14.28,0,0,0-1,5.05A24.59,24.59,0,0,0,.25,29a30.15,30.15,0,0,0,1.38,4.76,25.13,25.13,0,0,0,2.22,4c.6.92,1.73,1.41,2.16,2.5,1,.32,1.5,1.26,2.33,1.82a18.59,18.59,0,0,0,4.48,2.4,13.47,13.47,0,0,0,5,1.16c.22,0,.53-.11.53.29h3.55c0-.4.32-.28.53-.29a8.24,8.24,0,0,0,2.25-.26,27.49,27.49,0,0,0,4.14-1.46,13.18,13.18,0,0,0,2.85-1.68c.11-.09.41-.15.48-.08.48.45,1,.21,1.55.21,13.79,0,27.58,0,41.37,0a29.06,29.06,0,0,0,6.11-.62A13.37,13.37,0,0,0,83.67,41a18.9,18.9,0,0,0,7.75-6.22,13.17,13.17,0,0,0,2-4.05,16.55,16.55,0,0,0,.67-5.07A16.67,16.67,0,0,0,93.1,20.85ZM30.52,12.23s.16-.09.24-.1.39,0,.59,0c.89,0,.89,0,.88.81s0,.67-1.2.66c-.07,0-.48,0-.49-.1A6,6,0,0,1,30.52,12.23Zm-.06,4.44c0-.8-.11-.69.84-.7.76,0,.59-.09.65,1,0,.73-.46.35-.74.44l-.75-.7Zm1.43,21.09c-.56.11-.87.57-1.23.94A10.57,10.57,0,0,1,28.82,40a22,22,0,0,1-5.57,2.27,7.33,7.33,0,0,1-1.16.06c-.6.08-1.26-.27-1.82.25a.4.4,0,0,1-.38,0c-.42-.44-.94-.21-1.39-.2a14.37,14.37,0,0,1-4.71-1.13c-3-1-5.14-3.1-7-5.39a13.53,13.53,0,0,1-2.92-6.32,10.74,10.74,0,0,1-.3-1.8A16.49,16.49,0,0,1,3.27,26c.26-2.25.33-4.53,1.41-6.65A33.21,33.21,0,0,1,7.29,15a13.17,13.17,0,0,1,3.45-3.09A20.25,20.25,0,0,1,15.4,9.57c.58-.2,1.17-.14,1.77-.35a10.47,10.47,0,0,1,2.55-.35l-.06,0a12.17,12.17,0,0,1,5.87,1h0a3.4,3.4,0,0,1,.49.22,6.23,6.23,0,0,1,.58.29c1.09,0,1.74,1,2.7,1.36.44.16.25.39-.17.41-.06,0-.14.23-.14.36,0,.35,0,.69,0,1,0,.88,0,.92-.87.93l-.34-.35h0l-.52.56.24.19a.92.92,0,0,0,0,.16,1.46,1.46,0,0,1,0,.59.59.59,0,0,1-.34.32c-.79.17-.82.15-.82.89,0,.39,0,.67-.53.61s-.75.12-1,.61c-.38.78-1,1.44-1.44,2.21-.95,1.77-1.84,3.58-2.73,5.37-.25.49-.4,1-.65,1.51-.12.25-.34.46-.62.07s-.8-.95-1.13-1.46a18.69,18.69,0,0,0-4.4-4.34,11.87,11.87,0,0,0-2.42-1.27c-.51-.24-1.29.31-1.36.92a2,2,0,0,0,.57,1.83A27.14,27.14,0,0,1,15,28.82a21.32,21.32,0,0,1,2.8,5.92c.27,1.07,1.3,1.54,2.52,1.67a1.89,1.89,0,0,0,2.13-1.14l.67-1.64a39.15,39.15,0,0,1,2.51-5.33c.78-1.24,1.53-2.52,2.32-3.76a2.68,2.68,0,0,0,.17-1.4c0-.46,0-.79.62-.67.42.09.65-.06.58-.54a1.26,1.26,0,0,1,0-.58.6.6,0,0,1,.32-.34c.27-.08.68,0,.8-.17s0-.56.05-.85c0-.73,0-.73.8-.77s.67,0,.68-.73a6.06,6.06,0,0,0,0-.74c0-.26.05-.33.3-.31a8.81,8.81,0,0,0,.89,0c.38,0,.37,0,.3-.55a1.36,1.36,0,0,1,0-.45c0-.16.1-.43.2-.46.31-.09.28.21.41.4a14.54,14.54,0,0,1,1.85,3.67,10.5,10.5,0,0,1,.8,3.22c0,.7.26,1.4.26,2.1a2.84,2.84,0,0,1-.2,1.68c-.25.45.16,1.32-.12,1.7s.06,1.22-.54,1.57c.18,1-.47,1.69-.78,2.49a11.81,11.81,0,0,1-2.36,3.6C32.56,36.84,32,37.11,31.89,37.76ZM92.82,27.59A13.74,13.74,0,0,1,92,31.08a12.28,12.28,0,0,1-1.53,3.05,16.66,16.66,0,0,1-4.78,4.37,27.65,27.65,0,0,1-4,1.85c-.62.23-1.37-.15-1.87.47-1.24.09-2.48.27-3.72.28-6.89,0-13.79,0-20.68,0H34.6a8.61,8.61,0,0,1-.88,0,.47.47,0,0,1-.29-.23s0-.18,0-.26a.84.84,0,0,1,.21-.21,17.78,17.78,0,0,0,3.94-4.84,15.48,15.48,0,0,0,1.61-3.46c.26-1.07.89-2.1.68-3.27.61-1.71.29-3.47.26-5.2a15.18,15.18,0,0,0-.93-4.33,20,20,0,0,0-2.91-5.59,1.23,1.23,0,0,1-.25-.48c0-.22-.09-.52.3-.51.2,0,.4,0,.6,0,.43.06.65-.09.57-.55s.1-.65.63-.65c3.65,0,7.29,0,10.94,0,9.6,0,19.2,0,28.81,0a15.13,15.13,0,0,1,5.39,1.24,16.23,16.23,0,0,1,6.25,4.5,13.15,13.15,0,0,1,2.68,4.94A12.4,12.4,0,0,1,92.82,27.59Z"/><path class="cls-1" d="M43.67,1.37c.15-.15.08-.52.1-.8s0-.38,0-.57H42.29V1.77a3.52,3.52,0,0,1,.59-.28C43.15,1.42,43.53,1.52,43.67,1.37Z"/><path class="cls-1" d="M37.68,6.63c.25-.25.89-.1,1.36-.12,0-.44,0-.89,0-1.33,0-.28,0-.48.38-.45a5.61,5.61,0,0,1,.58,0c.51.07.54-.21.53-.6,0-.88,0-.88-.83-.89H39c-.44,0-1-.12-1.26.1s-.13.81-.13,1.24,0,.45-.39.44-.86-.09-1,.08a2.33,2.33,0,0,0-.13,1.11c0,.59,0,1.18,0,1.77h1.48C37.58,7.52,37.43,6.88,37.68,6.63Z"/><path class="cls-1" d="M88.15,11.65c0,.07.21.15.33.17a.29.29,0,0,0,.23-.13.7.7,0,0,0,0-.29c0-.32,0-.61.42-.22.17.16.45.11.48-.25,0-.09.07-.17.1-.25s.18.1.18.15c0,.24,0,.49,0,.73a.9.9,0,0,0,.12.24,1.05,1.05,0,0,0,.17-.31,5.61,5.61,0,0,0,0-.58,5.81,5.81,0,0,0,0-.59,5,5,0,0,0-.12-.53,3.42,3.42,0,0,0-.4.36c-.36.46-.62.51-.85-.11a.56.56,0,0,0-.46-.26c-.37,0-.22.35-.23.56A11.43,11.43,0,0,0,88.15,11.65Z"/><path class="cls-1" d="M40.07,8c.75,0,.73,0,.75-.81,0-.45,0-.78-.61-.68a6.52,6.52,0,0,1-1.17,0V8Z"/><path class="cls-1" d="M43.07,4.73c.7,0,.7,0,.7-.69,0-.89.13-.75-.9-.8-.51,0-.7.09-.58.59C42.29,4.87,42.19,4.72,43.07,4.73Z"/><path class="cls-1" d="M33.5,8c.8,0,.8,0,.8-.75s0-.73-.67-.73-.79,0-.8.6C32.81,8,32.81,8,33.5,8Z"/><path class="cls-1" d="M35.49,8c-.92,0-.89,0-.9,1,0,.5.21.55.61.52s.58,0,.88,0V8Z"/><path class="cls-1" d="M37.56,9.46c.47,0,1.11.13,1.35-.12S39,8.45,39,8H37.56Z"/><path class="cls-1" d="M41.41,3.26a8.61,8.61,0,0,1,.88,0V1.77H41.7c-.92,0-.89,0-.9,1C40.79,3.24,41,3.29,41.41,3.26Z"/><path class="cls-1" d="M86.55,10.42c.07,0,.09.24.1.38s0,.48,0,.72c0,.09.13.18.19.26a1.09,1.09,0,0,0,.1-.25c0-.52-.23-1.16.59-1.33,0-.13,0-.34-.11-.38a3,3,0,0,0-.66-.09c-.17,0-.59,0-.67.19C85.89,10.31,86.3,10.31,86.55,10.42Z"/><path class="cls-1" d="M74.35,25a1.54,1.54,0,0,0,1.87-.24.91.91,0,0,1,.31-.16,1.17,1.17,0,0,1,.06.41A1.23,1.23,0,0,1,75,26a1.77,1.77,0,0,0-.93-.22c-.14,0-.38.17-.38.26s.09.56.2.58c.89.17,1.74.63,2.71.06.68-.4,1.17-.74,1.21-1.44s0-1.18,0-1.77,0-1.18,0-1.77c0-.34-.17-.38-.45-.38-.51,0-1.08.42-1.5,0-.63-.7-1.14.07-1.69.1s-.63.73-.79,1.2c-.09.27,0,.59,0,.88A1.5,1.5,0,0,0,74.35,25Zm1.27-2.85c.74,0,1,.23,1,.89a1.25,1.25,0,0,1-1,1.18,1.18,1.18,0,0,1-1-1.28C74.57,22.34,74.8,22.17,75.62,22.18Z"/><path class="cls-1" d="M83.7,29.87c0-.83,0-1.67,0-2.5,0-.28,0-.44-.37-.46-.77-.05-.81,0-.82.75,0,.29,0,.59,0,.88a2.6,2.6,0,0,1-.1.4l-.31-.22c-.64-.47-1.83-.49-2.18.09a3.11,3.11,0,0,0-.71,1.94A2.14,2.14,0,0,0,80,32.22c.82.79,1.25.84,2.22.18.24-.16.27-.14.33.13.14.59.64.27,1,.28s.21-.37.21-.58C83.71,31.44,83.7,30.66,83.7,29.87Zm-2.2,2.05c-.44,0-1-.67-1-1.24,0-.32-.13-.69.25-.91a3.05,3.05,0,0,1,1-.47c.37-.05.85.76.85,1.31A1.29,1.29,0,0,1,81.5,31.92Z"/><path class="cls-1" d="M48.72,29.28a4.27,4.27,0,0,1-.89-.32c-.15-.09-.2-.39-.19-.6s.24-.21.39-.26a2.35,2.35,0,0,1,1.49.31c.23.09.33.51.49-.11s.31-.74-.33-.93-1.23-.65-2.07-.2-1.17.54-1.18,1.49.17,1.19,1.14,1.51c.51.18,1,.44,1.53.57.38.09.26.33.29.55s-.2.34-.47.36a3.14,3.14,0,0,1-1.78-.33s-.06-.08-.1-.1-.81.3-.82.51a.56.56,0,0,0,.27.4c.62.3,1.25.55,1.85.81.44-.16.79-.29,1.13-.4a1.45,1.45,0,0,0,1-2.08C50.1,29.71,49.37,29.56,48.72,29.28Z"/><path class="cls-1" d="M67.66,22.49A7.12,7.12,0,0,0,66,21.91c-.49-.1-.37-.41-.33-.65.08-.44.47-.56.93-.36a3.06,3.06,0,0,0,1,.37.91.91,0,0,0,.67-.43c.19-.33-.17-.57-.4-.68a3.4,3.4,0,0,0-1.18-.33,2.93,2.93,0,0,0-1.81.59,1.06,1.06,0,0,0-.42,1.14c0,.44-.1.92.39,1.16s1,.44,1.5.64a2.89,2.89,0,0,0,.77.29c.4.05.27.33.29.54s-.2.38-.46.36c-.51-.05-1,.1-1.52-.27s-.71-.2-1.11.23c-.21.23-.06.33.08.42a3.1,3.1,0,0,0,2.79.52c.52-.17,1.33-.82,1.4-1.27C68.75,23.32,68.55,22.91,67.66,22.49Z"/><path class="cls-1" d="M49.82,19.88c-.14,0-.12.5-.22.75-.36.89-.73,1.76-1.1,2.64,0,.12-.09.25-.14.38-.14-.13-.38-.25-.4-.4-.13-1-.74-1.76-1-2.7-.15-.69-.27-.73-1-.73-.55,0-.5,0-.35.58a16,16,0,0,0,.82,2.16,18.92,18.92,0,0,0,1.17,2.75.72.72,0,0,0,.69.44.76.76,0,0,0,.73-.57,21.47,21.47,0,0,1,1.11-2.78A23.34,23.34,0,0,0,51,20.1a.47.47,0,0,0,0-.27A3.44,3.44,0,0,0,49.82,19.88Z"/><path class="cls-1" d="M75.6,28.39c-.47,0-.94-.11-1.33.38a2.85,2.85,0,0,0-.92,1.69,2.09,2.09,0,0,0,1.31,2.1,2.35,2.35,0,0,0,2.62-.26c.4-.27,0-.41-.12-.52a.65.65,0,0,0-.9,0c-.54.41-.94-.15-1.4-.3,0,0,0-.18,0-.26a.3.3,0,0,1,.18-.2h2.06c.7,0,.84-.18.71-.84A2.07,2.07,0,0,0,75.6,28.39Zm.17,1.78h-.29c-.25,0-.5,0-.74,0-.07,0-.19-.1-.19-.16,0-.41,1.07-.86,1.42-.6a7.36,7.36,0,0,1,.63.62Z"/><path class="cls-1" d="M54.22,25.85c.46-.19.93-.36,1.38-.58.1-.05.12-.26.17-.4-.3-.09-.29-.79-.83-.4-.77.55-1.09.53-1.71-.08a2.73,2.73,0,0,1-.27-.31,1.46,1.46,0,0,1,.39-.12c.83,0,1.66,0,2.5,0,.36,0,.39-.24.33-.48s-.22-.5-.28-.76c-.42-1.87-2.63-1.73-3.65-.87-.1.08-.13.23-.2.35A2.46,2.46,0,0,0,54.22,25.85Zm-1-3.43a.86.86,0,0,1,.43-.23.82.82,0,0,1,.56,0,1.17,1.17,0,0,1,.46.64c0,.36-.35.2-.56.23h-.58L53,22.89A2.4,2.4,0,0,1,53.24,22.42Z"/><path class="cls-1" d="M54.14,28.39a1.69,1.69,0,0,0-.84.13,2.32,2.32,0,0,0-.92,1.07,2.69,2.69,0,0,0-.07,1.67,2.25,2.25,0,0,0,3.69,1c.23-.19.11-.27,0-.42a.71.71,0,0,0-.91-.12,2.34,2.34,0,0,1-.5.19c-.18,0-1.06-.69-1-.7a2.79,2.79,0,0,1,.8-.17q.88,0,1.77,0c.34,0,.37-.16.38-.45C56.54,29.3,55.71,28.41,54.14,28.39Zm.57,1.78h-.28a.93.93,0,0,1-.29,0c-.21-.05-.48-.07-.59-.21s.25-.63.57-.66a1.3,1.3,0,0,1,.71,0,1,1,0,0,1,.45.65C55.29,30.3,54.93,30.13,54.71,30.17Z"/><path class="cls-1" d="M66.9,28.39c-.31,0-.7-.13-.66.46,0,.79,0,1.57,0,2.36,0,.45-.23.45-.54.44-.74,0-.93-.19-1-.93s0-1.27,0-1.91c0-.31-.09-.44-.41-.42-.64,0-.81-.18-.78.64s0,1.67,0,2.5a1.43,1.43,0,0,0,2,1.17c.38-.25.53-.47,1,0s.85.2.86-.44,0-1.08,0-1.62,0-1.18,0-1.77S67.22,28.37,66.9,28.39Z"/><path class="cls-1" d="M80.09,25.44c.31,0,.7.12.66-.47s0-1.27,0-1.91.28-.86.71-.88.75.26.76.82,0,1.37,0,2.06c0,.34.16.38.45.38.73,0,.73,0,.74-.67s0-1.48,0-2.21a1.2,1.2,0,0,0-1.23-1.26c-.37,0-.75.12-1.12.12s-.76-.11-1.14-.11a.49.49,0,0,0-.34.3c0,.59,0,1.18,0,1.77s0,1.08,0,1.62S79.77,25.45,80.09,25.44Z"/><path class="cls-1" d="M60.69,29.49a1.89,1.89,0,0,0,.4.08A.64.64,0,0,0,61.8,29c.08-.38-.29-.28-.48-.35-.34-.13-.7-.23-1-.34A2.2,2.2,0,0,0,58,30.84a2.39,2.39,0,0,0,1.5,1.86,2.08,2.08,0,0,0,2.09-.37.62.62,0,0,0,.18-.58c-.13-.22-.4-.6-.67-.35s-.83.23-1.24.23a.88.88,0,0,1-.57-.35,1.72,1.72,0,0,1,.12-1.48C59.81,29.26,59.9,29.24,60.69,29.49Z"/><path class="cls-1" d="M58.85,25.17a8.85,8.85,0,0,0,0-1,1.49,1.49,0,0,1,.84-1.67c.29-.15.51-.9.3-1a.83.83,0,0,0-.76,0c-.35.43-.45-.13-.7-.13-.78,0-.85,0-.86.72,0,.5,0,1,0,1.48,0,.64,0,1.28,0,1.92a.43.43,0,0,0,.18.33A.68.68,0,0,0,58.85,25.17Z"/><path class="cls-1" d="M71.72,28.41a1.19,1.19,0,0,0-.6.31c-.31.29-.44.35-.47-.16,0-.07-.41-.16-.62-.14s-.22.27-.22.42c0,.54,0,1.08,0,1.62s0,1.08,0,1.61c0,.35-.2.82.5.77s.39-.49.37-.74a2.25,2.25,0,0,1,1.07-2.46c.72-.3.24-.72.42-1C72,28.54,71.85,28.39,71.72,28.41Z"/><path class="cls-1" d="M62.18,21.29c-.31,0-.7-.15-.68.46,0,1.07,0,2.15,0,3.23,0,.44.2.49.53.46s.72.15.68-.46,0-1,0-1.47,0-1.18,0-1.76S62.51,21.27,62.18,21.29Z"/><path class="cls-1" d="M71.05,25.44c.32,0,.55,0,.53-.45,0-1.08,0-2.16,0-3.24,0-.59-.36-.43-.67-.46s-.57,0-.53.45,0,1,0,1.47,0,1.18,0,1.77S70.73,25.41,71.05,25.44Z"/><path class="cls-1" d="M71.05,20.72c.49,0,.59-.19.52-.58,0-.63,0-.6-.66-.63-.49,0-.55.19-.53.6C70.41,20.72,70.39,20.68,71.05,20.72Z"/><path class="cls-1" d="M62.18,19.53c-.3,0-.69-.17-.68.43s0,.74.53.74c.3,0,.75.17.67-.44S62.73,19.52,62.18,19.53Z"/></g></g></svg>