<svg xmlns="http://www.w3.org/2000/svg" viewBox="0 0 119.44 115.98"><defs><style>.cls-1{fill:#b2b2b2;}</style></defs><title>visit-england</title><g id="Layer_2" data-name="Layer 2"><g id="project"><path class="cls-1" d="M19,53.18a.78.78,0,0,1,.21.16,1.23,1.23,0,0,1-.25.14,1.69,1.69,0,0,1-.34.1,4.37,4.37,0,0,0-3.21,3.11.58.58,0,0,0,.09.54,4.51,4.51,0,0,0,4.31.8c.5-.19,1-.41,1.48-.61a3.38,3.38,0,0,1,.34-.08,2.11,2.11,0,0,1-.18.33A8.64,8.64,0,0,0,19.67,65,16.51,16.51,0,0,0,23,72.21,37.94,37.94,0,0,0,37.61,83.69a18.55,18.55,0,0,0,10.26,1.92A8.64,8.64,0,0,0,54,82.4a4.78,4.78,0,0,1,.44-.46,3.91,3.91,0,0,1,0,.68,4.43,4.43,0,0,0,2,4.29.53.53,0,0,0,.5,0A4.58,4.58,0,0,0,59,83.46c0-.39-.05-.79-.06-1.18,0-.11,0-.23,0-.34a1.83,1.83,0,0,1,.26.21c1.81,2.49,4.39,3.4,7.32,3.56a17.63,17.63,0,0,0,7.33-1.25,38.86,38.86,0,0,0,14.22-9.52,21.66,21.66,0,0,0,4.79-7.1,11.29,11.29,0,0,0,.67-7.09,8.09,8.09,0,0,0-1.68-3.12,1.19,1.19,0,0,1-.13-.25.65.65,0,0,1,.28,0c.4.15.81.31,1.21.49a4.56,4.56,0,0,0,4.36-.44c.47-.27.51-.54.3-1a4.6,4.6,0,0,0-3.39-3,1.41,1.41,0,0,1-.35-.17,2.14,2.14,0,0,1,.26-.19,8.74,8.74,0,0,0,4.71-4.88A19,19,0,0,0,100.65,41c-.2-1.75-.32-3.51-.64-5.24A38.66,38.66,0,0,0,94.79,22a18.43,18.43,0,0,0-6.05-6.21,9,9,0,0,0-6.23-1.48c-.65.12-1.3.34-2,.51a.79.79,0,0,1-.22,0,.61.61,0,0,1,.09-.2c.33-.39.66-.79,1-1.16a4.63,4.63,0,0,0,.94-4.56c-.07-.32-.22-.47-.57-.43-1.66.16-3.16.61-4,2.21a6.42,6.42,0,0,1-.41.65,1.86,1.86,0,0,1-.22.27,1.65,1.65,0,0,1-.11-.36A8.59,8.59,0,0,0,74.5,5.72a14.29,14.29,0,0,0-3.74-2.81A24.49,24.49,0,0,0,61.8.3a41.85,41.85,0,0,0-13,.46A20.07,20.07,0,0,0,40.92,4c-2.32,1.68-4.12,3.72-4.49,6.71,0,.31-.09.62-.13.92a6,6,0,0,1-.62-.81,4.6,4.6,0,0,0-4-2.28c-.24,0-.54-.11-.63.26-.35,1.53-.49,3,.61,4.35.38.46.77.91,1.15,1.36.1.12.18.25.27.38a3.11,3.11,0,0,1-.44-.08,8.31,8.31,0,0,0-3.8-.49,10.88,10.88,0,0,0-4.21,1.52,18.28,18.28,0,0,0-5.91,6A39,39,0,0,0,13.4,35.66a23.39,23.39,0,0,0-.11,9.68C14.07,48.74,15.54,51.7,19,53.18Zm33,27c-2,1.89-4.93,2.39-7.24,0-.48-.51-.94-1-1.41-1.53-1.55-1.65-3-3.39-4.65-4.94A30.63,30.63,0,0,0,29,67.79c-1.15-.47-2.29-1-3.39-1.56a4.49,4.49,0,0,1-2.52-3.79,5.14,5.14,0,0,1,.5-2.65c1.34-2.84,3.8-4.19,6.67-5,.35-.1.42.17.55.39a31.24,31.24,0,0,0,1.84,3,7.49,7.49,0,0,0,5.2,3.24,19.44,19.44,0,0,0,2.95-.1h.29a1.05,1.05,0,0,1-.13.26c-.29.37-.61.73-.89,1.11a4.6,4.6,0,0,0-.39,4.11c0,.12.38.26.57.24a4.59,4.59,0,0,0,4.1-2.4,1.92,1.92,0,0,1,.23-.35.94.94,0,0,1,.22-.15,1,1,0,0,1,.06.22c.36,3.92,3.22,6.4,7.53,7.25a9.54,9.54,0,0,0,1.59.24c.44,0,.59.22.61.61s0,.59.06.92C54.46,75.93,53.92,78.31,52,80.15ZM48.88,51.86c.39.37.4.59.07,1-.86.94-1.65,1.93-2.54,2.83a7.88,7.88,0,0,1-4.53,2.17,2.82,2.82,0,0,1-3.07-1.55,8.5,8.5,0,0,1-.91-2.43,30.08,30.08,0,0,0-2.33-7.21,21.56,21.56,0,0,1-.84-2.69l.14,0a2.8,2.8,0,0,1,1.56-2.73,7.9,7.9,0,0,1,5.34-.88c1.09.2,2.16.52,3.24.75.39.09.44.29.39.64A11,11,0,0,0,48.88,51.86Zm5,12.77a14.7,14.7,0,0,1-3,.08c-2.14-.24-3.06-1.3-3.19-3.44,0-.2,0-.39,0-.59l-.15,0a16.25,16.25,0,0,1,.76-2.9c.65-1.39,1.52-2.68,2.29-4,.16-.27.34-.31.63-.16a11.79,11.79,0,0,0,10.81,0,.62.62,0,0,1,.54.07,13.65,13.65,0,0,1,2.81,5.5,10.12,10.12,0,0,1,0,3,2.8,2.8,0,0,1-2.75,2.51,27.24,27.24,0,0,1-4.14-.13A24.39,24.39,0,0,0,53.92,64.63ZM68,41.79c-.09-.45,0-.7.49-.79,1.49-.27,3-.69,4.48-.82a6.81,6.81,0,0,1,4.29,1.18,2.63,2.63,0,0,1,1.26,2.4,7.4,7.4,0,0,1-.79,3.11,24,24,0,0,0-1.81,5c-.21,1.06-.48,2.12-.75,3.17a5.31,5.31,0,0,1-.41,1A3.12,3.12,0,0,1,71,57.74a9.24,9.24,0,0,1-5-3.15c-.54-.61-1-1.26-1.55-1.88-.27-.31-.24-.5.07-.77A11.08,11.08,0,0,0,68,45.86,10.33,10.33,0,0,0,68,41.79Zm20.3,24.12A21.89,21.89,0,0,1,85,67.54a36.75,36.75,0,0,0-9.26,5.16,45.36,45.36,0,0,0-5.94,6.14c-.37.44-.78.85-1.17,1.27-2.53,2.65-5.78,1.79-7.7-.42a9.49,9.49,0,0,1-2.13-6.28c0-1.42,0-1.42,1.39-1.61a12.88,12.88,0,0,0,4-1.17,7.54,7.54,0,0,0,4.4-6.14,1.81,1.81,0,0,1,.09-.31,2.61,2.61,0,0,1,.24.23c.15.21.29.43.42.65.91,1.52,2.39,1.91,4,2,.34,0,.44-.17.5-.45a4.52,4.52,0,0,0-1-4.54,2.13,2.13,0,0,1-.51-.76c.12,0,.24,0,.35,0a7.4,7.4,0,0,0,7.09-2.08,18.06,18.06,0,0,0,2-2.58,10.49,10.49,0,0,0,.85-1.63.45.45,0,0,1,.6-.3,10.41,10.41,0,0,1,5.9,3.76A5.81,5.81,0,0,1,90.35,62,4.25,4.25,0,0,1,88.32,65.91ZM75.39,21.76a9.74,9.74,0,0,1,5.8-4.16c2.57-.55,5.89.4,6.38,4.49.22,1.87.38,3.75.58,5.62A29.62,29.62,0,0,0,92.64,40.3c.69,1.11,1.37,2.22,2,3.37A4.67,4.67,0,0,1,95.11,48a5.75,5.75,0,0,1-4,3.34c-.78.21-1.6.26-2.39.39a14.46,14.46,0,0,1-4-.83c-.36-.14-.48-.29-.38-.7a14,14,0,0,0,.37-4.42A7.49,7.49,0,0,0,80.1,39a2.35,2.35,0,0,1-.22-.1l-.25-.22c.09,0,.18-.08.27-.1.42-.12.84-.22,1.27-.33a4.54,4.54,0,0,0,3-3.14c0-.13-.12-.45-.28-.55A4.55,4.55,0,0,0,79.26,34c-.26.12-.54.19-.82.29.11-.28.21-.57.34-.84a7.51,7.51,0,0,0-.24-7,13.07,13.07,0,0,0-3.06-3.76C75.12,22.33,75.13,22.11,75.39,21.76Zm-.92,12.7a8.55,8.55,0,0,1-4,3.64c-.84.39-1.72.7-2.58,1.07-.37.16-.54.06-.71-.31A11.23,11.23,0,0,0,59,32.48h0c-.41-.11-1-.08-1.19-.34s-.06-.84,0-1.27c.11-1,.2-2.05.41-3.06a7.5,7.5,0,0,1,2.43-4.13,2.52,2.52,0,0,1,1.89-.73l0-.12a9.86,9.86,0,0,1,1.86.69,13.93,13.93,0,0,1,2.22,1.68,24.29,24.29,0,0,0,4.86,3.5,13.35,13.35,0,0,1,2.3,1.57A3,3,0,0,1,74.47,34.46ZM39.29,12.09A4.85,4.85,0,0,1,45.5,7.92c1.84.39,3.66.87,5.5,1.24a30.36,30.36,0,0,0,13.31-.4c1.42-.35,2.85-.66,4.29-.92A4.72,4.72,0,0,1,74,11.5a7.25,7.25,0,0,1-.07,4.05,12,12,0,0,1-1.84,3.7c-.29.4-.52.51-1,.22a13.06,13.06,0,0,0-4.53-1.73,7.56,7.56,0,0,0-7.28,2.38,3.07,3.07,0,0,1-.34.29,1.6,1.6,0,0,1,0-.48,4.82,4.82,0,0,0-1.75-4.83c-.39-.34-.63-.3-1,0A4.74,4.74,0,0,0,54.45,19L54.51,20c0,.12,0,.25,0,.38a2.62,2.62,0,0,1-.32-.23,7.36,7.36,0,0,0-3.83-2.37,9.38,9.38,0,0,0-5.93.64c-.78.33-1.53.74-2.29,1.12-.2.1-.37.21-.56,0C39.87,17.33,38.78,14.93,39.29,12.09Zm.35,18.19A13.58,13.58,0,0,1,42,28.64a23.76,23.76,0,0,0,4.8-3.47,13.58,13.58,0,0,1,2.28-1.71,3.09,3.09,0,0,1,4.25.72,8.73,8.73,0,0,1,2.17,5.05c.07.59.12,1.18.17,1.77,0,1.23,0,1.2-1.17,1.45a11.26,11.26,0,0,0-8.2,6.24c-.32.64-.33.68-1,.39-1.21-.52-2.43-1-3.6-1.68A7.14,7.14,0,0,1,39,34.48,3,3,0,0,1,39.64,30.28ZM18.41,44.42A22.54,22.54,0,0,1,20,41.61a34.19,34.19,0,0,0,4.38-9.26,38,38,0,0,0,1.16-7A39,39,0,0,1,26,21.44a4.75,4.75,0,0,1,5.19-4,7.89,7.89,0,0,1,5.17,2.39c.63.6,1.14,1.31,1.72,2,.27.3.2.51-.09.77a13.83,13.83,0,0,0-3,3.66,7.52,7.52,0,0,0-.1,7.6,1.79,1.79,0,0,1,.13.41,2.5,2.5,0,0,1-.39-.11,4.74,4.74,0,0,0-4.91.24.63.63,0,0,0-.33,1,4.73,4.73,0,0,0,3.77,3.09,5.16,5.16,0,0,1,.67.2c-.19.11-.38.25-.58.35a7.53,7.53,0,0,0-4.45,6.42,13.87,13.87,0,0,0,.34,4.72.56.56,0,0,1-.43.78,12,12,0,0,1-4,.73,7.13,7.13,0,0,1-5.16-1.9A4.45,4.45,0,0,1,18.41,44.42Z"/><path class="cls-1" d="M73.78,100.23c-.2-.34-.36-.32-.65-.1a3.16,3.16,0,0,1-2.47.63c-.42-.05-.84-.19-1.27-.28a6.67,6.67,0,0,0-4.57.44,3.36,3.36,0,0,0-1.9,3.31A2.83,2.83,0,0,0,64.86,107a1.42,1.42,0,0,1,.23.14,1.12,1.12,0,0,1-.21.17c-.25.12-.52.21-.76.35a1.5,1.5,0,0,0-.82,1.74,1.31,1.31,0,0,0,1.27,1.2c1,.14,2.05.16,3.07.25a9,9,0,0,1,1.81.27,1.11,1.11,0,0,1,.57,1.74,2,2,0,0,1-.86.68,4.38,4.38,0,0,1-2.75,0,1.18,1.18,0,0,1-.94-1.16c0-.79,0-.79-.89-.79h-.89c-.92,0-1.08.16-1.1,1.09a2.64,2.64,0,0,0,0,.29,3,3,0,0,0,2.09,2.45,9.12,9.12,0,0,0,4.21.43,6,6,0,0,0,2.71-.81,3.36,3.36,0,0,0,.53-5.35,4.08,4.08,0,0,0-2.6-.87c-.77,0-1.55,0-2.32,0-.17,0-.33-.17-.5-.26.09-.16.14-.4.28-.47a7.78,7.78,0,0,1,1.3-.47,14.88,14.88,0,0,0,2.45-.61,2.92,2.92,0,0,0,1.36-4.2c-.17-.33-.1-.37.22-.34a3,3,0,0,0,2.08-.53c.24-.17.3-.32.11-.58A10.66,10.66,0,0,1,73.78,100.23Zm-6.1,5.46c-1.15,0-1.8-.55-1.82-1.57a1.63,1.63,0,0,1,1.82-1.73,1.58,1.58,0,0,1,1.8,1.66C69.49,105.12,68.87,105.68,67.68,105.69Z"/><path class="cls-1" d="M113.16,108.85c0-2,0-4,0-5.95h0q0-3.23,0-6.43c0-.36,0-.58-.48-.61a17.53,17.53,0,0,1-1.88-.31c-.41-.08-.6,0-.58.5,0,1.49,0,3,.09,4.46,0,.38-.1.39-.4.25a3.25,3.25,0,0,0-1-.33,4.5,4.5,0,0,0-4.93,2.8,7.8,7.8,0,0,0-.29,5.3c.89,3.11,3.85,4.29,6.72,2.7.25-.14.32-.1.4.16a.49.49,0,0,0,.37.27c.65,0,1.31,0,2,0,.28,0,.32-.09.27-.36A18.67,18.67,0,0,1,113.16,108.85Zm-2.88-.52a1.18,1.18,0,0,1-.41.78,1.85,1.85,0,0,1-3.05-1.21,8.64,8.64,0,0,1,.12-3.82c.43-1.61,2-1.79,3.11-.82a.9.9,0,0,1,.23.62c0,.75,0,1.51,0,2.26S110.33,107.6,110.28,108.33Z"/><path class="cls-1" d="M49.17,109.1c-1.55,0-3.09,0-4.64,0-.43,0-.6-.11-.59-.57,0-1,0-2,0-3,0-.48.17-.61.62-.6,1,0,2,0,3,0,.75,0,.75,0,.75-.72a11.78,11.78,0,0,1,0-1.19c0-.43-.14-.55-.54-.54-1.13,0-2.27,0-3.4,0-.37,0-.53-.11-.51-.51,0-.83,0-1.66,0-2.5,0-.46.15-.56.58-.55,1.41,0,2.82,0,4.23,0,.41,0,.56-.15.6-.53s.13-.86.2-1.29c.11-.61.08-.64-.53-.64-2.5,0-5,0-7.5,0-.53,0-.62.19-.61.66,0,2.3,0,4.6,0,6.9s0,4.72,0,7.09c0,.43.1.57.56.57q3.93,0,7.86,0c.43,0,.55-.15.52-.55a9.76,9.76,0,0,1,0-1.43C49.86,109.2,49.65,109.09,49.17,109.1Z"/><path class="cls-1" d="M90.44,110.17a1.68,1.68,0,0,1-.67-1.34c0-1.19,0-2.37,0-3.56h0c0-.65,0-1.31,0-2a2.77,2.77,0,0,0-2.32-2.89,8.53,8.53,0,0,0-6.2,1.22c-.24.13-.2.28-.08.47a10.09,10.09,0,0,1,.73,1.22c.23.51.47.48.89.21a4.94,4.94,0,0,1,3-.91,1,1,0,0,1,1.1,1c0,.22,0,.44,0,.65,0,.39-.09.49-.5.49a8.54,8.54,0,0,0-4,.75c-2.17,1.11-2,4.45-.77,5.58a5.12,5.12,0,0,0,.52.4c1.19.79,4.08.87,5.14-.32.2-.22.34-.21.56,0a6.59,6.59,0,0,0,.93.81.44.44,0,0,0,.71-.09,12,12,0,0,1,.94-1.07C90.69,110.61,90.78,110.43,90.44,110.17ZM86.86,108h0v.42A1.41,1.41,0,0,1,85.41,110a1.31,1.31,0,0,1-1.5-1.19,1.46,1.46,0,0,1,1-1.82,8.83,8.83,0,0,1,1.46-.18c.37,0,.5.13.47.48S86.86,107.77,86.86,108Z"/><path class="cls-1" d="M99.36,100.4a4.39,4.39,0,0,0-3.51.72c-.62.4-.62.4-.84-.29s-.23-.65-.88-.47-1.06.31-1.6.44c-.32.08-.38.23-.3.54a6.82,6.82,0,0,1,.23,1.4c0,1.37,0,2.74,0,4.11h0c0,1.39,0,2.77,0,4.16,0,.48.06.74.64.68a9.2,9.2,0,0,1,1.66,0c.49,0,.64-.13.63-.63,0-2.24,0-4.48,0-6.72,0-.23,0-.53.14-.66a3,3,0,0,1,1.93-1,.87.87,0,0,1,1,.89c0,.35,0,.71,0,1.07,0,2.14,0,4.28,0,6.42,0,.42.09.61.56.58.63,0,1.27,0,1.9,0,.33,0,.45-.08.45-.43,0-2.75,0-5.51,0-8.27A2.46,2.46,0,0,0,99.36,100.4Z"/><path class="cls-1" d="M60.62,103a2.47,2.47,0,0,0-2-2.56,4.32,4.32,0,0,0-3.4.64l-.71.43c-.1-.26-.23-.51-.31-.77s-.31-.53-.74-.38-1.09.33-1.65.47c-.32.08-.43.19-.36.57a13.67,13.67,0,0,1,.3,2.46c0,2.44,0,4.88,0,7.32,0,.4.1.57.53.55s1.15,0,1.72,0,.68,0,.68-.69c0-2.24,0-4.48,0-6.72,0-.23,0-.57.21-.68a5.09,5.09,0,0,1,1.44-.8c.89-.28,1.36.1,1.42,1a5.86,5.86,0,0,1,0,.59c0,2.2,0,4.4,0,6.61,0,.48.08.73.64.67a13.34,13.34,0,0,1,1.55,0c.71,0,.71,0,.71-.69v-3.93h0C60.62,105.7,60.64,104.33,60.62,103Z"/><path class="cls-1" d="M10.52,96.7a.58.58,0,0,0-.68.46q-1.78,5.59-3.61,11.19c-.11.34-.26.67-.4,1-.1-.33-.19-.66-.3-1C4.37,104.74,3.22,101.13,2,97.51c-.3-.93-.07-.79-1.13-.81H.73c-.84,0-.84,0-.57.81l4.39,13c.38,1.12.37,1.1,1.56,1.13a.66.66,0,0,0,.75-.54c1.5-4.42,3-8.84,4.53-13.26C11.8,96.69,11.8,96.7,10.52,96.7Z"/><path class="cls-1" d="M79.84,110.45c0-.33-.17-.52-.58-.52s-.6-.34-.65-.72,0-.63,0-.95c0-3.31,0-6.63,0-9.94,0-.77-.06-1.55-.09-2.32,0-.39-.16-.53-.56-.42-.65.17-1.31.32-2,.44-.41.07-.53.24-.52.67.08,2.24.12,4.48.18,6.72h0c0,1.9,0,3.81,0,5.71a2.45,2.45,0,0,0,1.91,2.67,5.39,5.39,0,0,0,1.7.09c1-.12,1-.16.75-1.15C79.89,110.64,79.86,110.54,79.84,110.45Z"/><path class="cls-1" d="M23.93,105.62c-.78-.23-1.58-.38-2.37-.56a1.55,1.55,0,0,1-1.4-1.53,1.75,1.75,0,0,1,1.34-1.75,4,4,0,0,1,2.66.31c.92.37,1,.34,1.31-.61a.46.46,0,0,0-.15-.39,5.93,5.93,0,0,0-4.94-.33,3.1,3.1,0,0,0-1.94,3.06,2.92,2.92,0,0,0,2.32,2.74c.19.06.39.09.58.14.63.15,1.28.27,1.9.48a1.5,1.5,0,0,1,1.11,1.45,1.85,1.85,0,0,1-1.8,2,6.11,6.11,0,0,1-3.23-.63c-.68-.32-.67-.32-1,.31a1.17,1.17,0,0,1,0,.11c-.26.34-.17.53.21.7a7.9,7.9,0,0,0,3.38.81,4.62,4.62,0,0,0,2.83-.73,3.28,3.28,0,0,0,1.39-3.33A2.68,2.68,0,0,0,23.93,105.62Z"/><path class="cls-1" d="M38.05,100.77c-.63,0-1.27,0-1.9,0-.34,0-.48-.11-.46-.45s0-1,.06-1.43c.11-1.27.11-1.26-1.15-.93-.3.08-.48.19-.49.54s-.07.83-.1,1.25c-.07,1-.07,1-1,1-.29,0-.41.08-.42.4,0,.86,0,.86.84.87h.06c.41-.05.54.13.54.54,0,1.21,0,2.42,0,3.63h0c0,1.23,0,2.46,0,3.69a1.9,1.9,0,0,0,1.57,2,4.68,4.68,0,0,0,2.35-.12c.57-.15.32-.51.29-.84s-.33-.31-.6-.25c-1.38.29-2-.2-2-1.61,0-1.87,0-3.73,0-5.59,0-1.47,0-1.47,1.44-1.47,1,0,1,0,1.26-.93C38.4,100.82,38.31,100.77,38.05,100.77Z"/><path class="cls-1" d="M15.72,106.17v-4.46c0-1.15,0-1.11-1.15-1-.54.07-.62.3-.61.76,0,3,0,6,0,9,0,1.21,0,1.19,1.22,1.21.47,0,.55-.16.54-.58C15.71,109.47,15.72,107.82,15.72,106.17Z"/><path class="cls-1" d="M30.16,106.15v-4.34c0-1.22,0-1.19-1.19-1.06-.48,0-.58.23-.58.67,0,3,0,6,0,9,0,1.25,0,1.23,1.24,1.24.43,0,.53-.15.53-.55C30.15,109.48,30.16,107.81,30.16,106.15Z"/><path class="cls-1" d="M14.89,96.11a1.3,1.3,0,0,0-1.37,1.26,1.32,1.32,0,0,0,1.3,1.34,1.3,1.3,0,0,0,1.33-1.31A1.26,1.26,0,0,0,14.89,96.11Z"/><path class="cls-1" d="M29.33,96.11A1.25,1.25,0,0,0,28,97.41a1.27,1.27,0,0,0,1.32,1.3,1.28,1.28,0,0,0,1.28-1.29A1.23,1.23,0,0,0,29.33,96.11Z"/><path class="cls-1" d="M117.16,96.23a2.25,2.25,0,0,0-2.32,2.26,2.3,2.3,0,1,0,4.6,0A2.24,2.24,0,0,0,117.16,96.23Zm0,4.27a2,2,0,0,1-2-2,2,2,0,0,1,4-.06A2.05,2.05,0,0,1,117.14,100.5Z"/><path class="cls-1" d="M117.46,97.24c-.17,0-.35,0-.68,0s-.54.14-.51.65,0,1.07,0,1.6c0,.11.14.22.21.33a1.52,1.52,0,0,0,.22-.34c.07-.26-.15-.69.39-.69s.44.36.47.67c0,.06,0,.15,0,.18a2.29,2.29,0,0,0,.31.18c0-.09.12-.18.11-.27a1.74,1.74,0,0,0-.09-.64.63.63,0,0,1,0-.66C118.23,97.78,118,97.34,117.46,97.24Zm.17.87c-.19.09-.39.26-.57.25s-.28-.26-.32-.42.18-.39.42-.33a2.19,2.19,0,0,1,.48.29A1.48,1.48,0,0,0,117.63,98.11Z"/></g></g></svg>