<svg xmlns="http://www.w3.org/2000/svg" viewBox="0 0 146.3 31.84"><defs><style>.cls-1{fill:#f20000;}</style></defs><title>visit-narnia</title><g id="Layer_2" data-name="Layer 2"><g id="project"><path class="cls-1" d="M42.47,20.9l-5-11h2.43l2.87,6.24L45.66,9.9h2.43l-5,11Z"/><path class="cls-1" d="M52.32,12.09V18.7h1.16v2.2H48.94V18.7h1.18V12.09H48.94V9.9h4.54v2.19Z"/><path class="cls-1" d="M59,16.24a5.28,5.28,0,0,1-1.67-.7,3,3,0,0,1-1.41-2.47,2.93,2.93,0,0,1,.8-2.25A3.8,3.8,0,0,1,59.3,9.74a5.43,5.43,0,0,1,3.29,1.1l.36.23-1.14,1.87-.39-.25a3.38,3.38,0,0,0-2.12-.75,1.75,1.75,0,0,0-1,.4.79.79,0,0,0-.18.63c0,.57.4.88,1.41,1.13a1.89,1.89,0,0,1,.31.1,5.78,5.78,0,0,1,2.43,1.45,3.17,3.17,0,0,1,.87,2.15A3.38,3.38,0,0,1,62.28,20a3.35,3.35,0,0,1-2.53,1.13,6.77,6.77,0,0,1-1.93-.27,6.09,6.09,0,0,1-2.62-1.67l1.6-1.5a3.81,3.81,0,0,0,3,1.24A1.21,1.21,0,0,0,61,17.8c0-.59-.67-1.14-1.82-1.53l0,0Z"/><path class="cls-1" d="M68.25,12.09V18.7h1.16v2.2H64.88V18.7h1.17V12.09H64.88V9.9h4.53v2.19Z"/><path class="cls-1" d="M79.51,9.9v2.19h-3V20.9h-2.2V12.09H71.21V9.9Z"/><path class="cls-1" d="M94.4,20.9l-6.19-6.42V20.9H86V9.9h.69l6.07,6.15V9.9H95v11Z"/><path class="cls-1" d="M104,18.86H99.41l-1,2H95.91l5.6-11h.65l5.19,11h-2.43Zm-1-2.2-1.15-2.45-1.24,2.45Z"/><path class="cls-1" d="M113.79,20.9l-2.05-4.41h-1.1v4.39h-2.2v-11h4.14A3.3,3.3,0,0,1,114,16.19l2.18,4.71Zm-3.15-8.82v2.21h1.94a1.11,1.11,0,0,0,0-2.21Z"/><path class="cls-1" d="M126.15,20.9,120,14.48V20.9h-2.2V9.9h.69l6.08,6.15V9.9h2.19v11Z"/><path class="cls-1" d="M132.14,12.09V18.7h1.16v2.2h-4.54V18.7h1.18V12.09h-1.18V9.9h4.54v2.19Z"/><path class="cls-1" d="M142.91,18.86h-4.55l-1,2h-2.47l5.61-11h.64l5.19,11h-2.43Zm-1-2.2-1.15-2.45-1.24,2.45Z"/><path class="cls-1" d="M7.47,31.84h13.1v-4h7.24V0H0V27.81H7.47Zm10.8-2.3H9.77V27.93h8.5Zm-3.21-4V21.68l5.5-4.24h0V5.63h4.94V25.51Zm3.21-10.37H9.77V2.41h8.5Zm-1.59,2.3-2.76,2-2.47-2ZM25.51,3.33H20.57v-1h4.94Zm-18-1v1H2.3v-1ZM2.3,5.63H7.47V17.44h0l5.28,4.23v3.84H2.3Z"/></g></g></svg>