<svg xmlns="http://www.w3.org/2000/svg" viewBox="0 0 28.94 20.48"><defs><style>.cls-1{fill:#d8d8d8;}</style></defs><title>youtube</title><g id="Layer_2" data-name="Layer 2"><g id="project"><path class="cls-1" d="M28.92,7.05c0-.34,0-.68-.05-1a7.61,7.61,0,0,0-1.23-4.28A4.73,4.73,0,0,0,24.34.4C22.81.23,21.28.12,19.74.06c-3.11-.11-6.22,0-9.33,0-1.6,0-3.2.07-4.8.2C3.66.44,1.64.72.73,2.68-.09,4.44,0,6.66,0,8.55c0,1.7,0,3.39,0,5.08.09,2.2.22,5.06,2.59,6a13.49,13.49,0,0,0,4.14.72c1.44.09,2.87.08,4.31.1,3,.05,6-.06,9-.12a20.39,20.39,0,0,0,6.23-.74c1.73-.59,2.18-2.46,2.41-4.09a31.64,31.64,0,0,0,.17-4.87C28.93,9.45,29,8.25,28.92,7.05ZM11.54,14.61V5.81L19,10.21Z"/></g></g></svg>